<svg xmlns="http://www.w3.org/2000/svg" xmlns:xlink="http://www.w3.org/1999/xlink" width="500" height="500" viewBox="0 0 500 500">
  <defs>
    <clipPath id="clip-path">
      <rect id="Rectangle_12" data-name="Rectangle 12" width="500" height="500" transform="translate(-28.33)" fill="none"/>
    </clipPath>
    <clipPath id="clip-path-2">
      <rect id="Rectangle_9" data-name="Rectangle 9" width="36.55" height="22.55" transform="translate(346.91 440.37)" fill="none"/>
    </clipPath>
    <clipPath id="clip-path-3">
      <rect id="Rectangle_10" data-name="Rectangle 10" width="39.59" height="26.34" transform="translate(245.34 353.35)" fill="none"/>
    </clipPath>
    <clipPath id="clip-path-4">
      <rect id="Rectangle_11" data-name="Rectangle 11" width="39.59" height="26.34" transform="translate(293.14 473.66)" fill="none"/>
    </clipPath>
  </defs>
  <g id="Слой_2" data-name="Слой 2" transform="translate(28.33)">
    <g id="Слой_1" data-name="Слой 1">
      <g id="Group_49" data-name="Group 49" clip-path="url(#clip-path)">
        <path id="Path_29" data-name="Path 29" d="M443.33,239.51l-.02,8.98-89.82,52.19.03-8.98Z" fill="#d3d3dd"/>
        <path id="Path_30" data-name="Path 30" d="M353.52,291.7l-.03,8.98-90.4-52.19.03-8.98Z" fill="#e0dee9"/>
        <path id="Path_31" data-name="Path 31" d="M443.33,239.51,353.52,291.7l-90.4-52.19,89.81-52.2Z" fill="#eaeaf4"/>
        <path id="Path_32" data-name="Path 32" d="M429.32,103.39l-.38,134.73-75.59,43.93.38-134.73Z" fill="#d3d3dd"/>
        <path id="Path_33" data-name="Path 33" d="M353.73,147.32l-.38,134.73-76.09-43.93.38-134.73Z" fill="#e0dee9"/>
        <path id="Path_34" data-name="Path 34" d="M429.32,103.39l-75.59,43.93-76.09-43.93,75.6-43.92Z" fill="#eaeaf4"/>
        <path id="Path_35" data-name="Path 35" d="M297.25,162.3l-.03,13.97-12.15-7.01.04-13.97Z" fill="#2a313f"/>
        <path id="Path_36" data-name="Path 36" d="M297.31,142.88l-.04,13.96-12.15-7.02.04-13.96Z" fill="#2a313f"/>
        <path id="Path_37" data-name="Path 37" d="M297.37,123.44l-.05,13.97-12.14-7.01.03-13.97Z" fill="#2a313f"/>
        <path id="Path_38" data-name="Path 38" d="M346.35,210.11l-.04,13.97-43.6-25.17.04-13.97Z" fill="#2a313f"/>
        <path id="Path_39" data-name="Path 39" d="M346.4,190.68l-.03,13.97-43.6-25.17.04-13.97Z" fill="#2a313f"/>
        <path id="Path_40" data-name="Path 40" d="M346.46,171.25l-.04,13.96-43.6-25.17.05-13.96Z" fill="#2a313f"/>
        <path id="Path_41" data-name="Path 41" d="M346.51,151.82l-.03,13.97-43.6-25.17.04-13.97Z" fill="#2a313f"/>
        <path id="Path_42" data-name="Path 42" d="M297.14,201.16l-.03,13.97-12.15-7.01.04-13.97Z" fill="#2a313f"/>
        <path id="Path_43" data-name="Path 43" d="M297.2,181.74l-.04,13.97-12.15-7.02.04-13.97Z" fill="#2a313f"/>
        <path id="Path_44" data-name="Path 44" d="M346.29,229.54l-.04,13.97-43.59-25.17.04-13.97Z" fill="#2a313f"/>
        <path id="Path_45" data-name="Path 45" d="M372.92,164.39l.04,13.97-12.16,7.02-.04-13.97Z" fill="#2a313f"/>
        <path id="Path_46" data-name="Path 46" d="M372.86,144.95l.04,13.97-12.15,7.02-.04-13.97Z" fill="#2a313f"/>
        <path id="Path_47" data-name="Path 47" d="M422.23,194.31l.04,13.96-43.6,25.17-.04-13.96Z" fill="#2a313f"/>
        <path id="Path_48" data-name="Path 48" d="M422.17,174.88l.04,13.97-43.59,25.16-.04-13.96Z" fill="#2a313f"/>
        <path id="Path_49" data-name="Path 49" d="M422.12,155.45l.04,13.96-43.6,25.17-.04-13.96Z" fill="#2a313f"/>
        <path id="Path_50" data-name="Path 50" d="M422.06,136.01l.04,13.97-43.59,25.17-.04-13.97Z" fill="#2a313f"/>
        <path id="Path_51" data-name="Path 51" d="M422.01,116.58l.04,13.97-43.6,25.17-.04-13.97Z" fill="#2a313f"/>
        <path id="Path_52" data-name="Path 52" d="M373.08,222.68l.05,13.96-12.16,7.02-.04-13.96Z" fill="#2a313f"/>
        <path id="Path_53" data-name="Path 53" d="M373.03,203.25l.04,13.97-12.16,7.02-.03-13.97Z" fill="#2a313f"/>
        <path id="Path_54" data-name="Path 54" d="M372.98,183.82l.03,13.96-12.15,7.02-.04-13.96Z" fill="#2a313f"/>
        <path id="Path_55" data-name="Path 55" d="M428.97,227.25l-.03,10.87-75.59,43.93-.04-11.12Z" fill="#323941"/>
        <path id="Path_56" data-name="Path 56" d="M353.38,270.93l-.03,11.12-76.09-43.93.03-11.12Z" fill="#323941"/>
        <g id="Group_48" data-name="Group 48">
          <path id="Path_57" data-name="Path 57" d="M381.21,105.18h.86l4.32,2.5a16.37,16.37,0,0,1-9.48,0Z" transform="translate(-28.33)" fill="#2a313f"/>
          <path id="Path_58" data-name="Path 58" d="M362.42,89.34c11-5.33,27.18-5.33,38.26,0l-3.9,2.27c-8.91-4.1-21.58-4.1-30.43,0Z" transform="translate(-28.33)" fill="#2a313f"/>
          <path id="Path_59" data-name="Path 59" d="M369.11,93.2a33.09,33.09,0,0,1,24.93,0l-3.93,2.28a24.52,24.52,0,0,0-17.05,0Z" transform="translate(-28.33)" fill="#2a313f"/>
          <path id="Path_60" data-name="Path 60" d="M376.85,97.67a16.35,16.35,0,0,1,9.5,0l-4.3,2.5a6.46,6.46,0,0,0-.88,0Z" transform="translate(-28.33)" fill="#2a313f"/>
          <path id="Path_61" data-name="Path 61" d="M386,102.92a2.087,2.087,0,0,0,0-.5l4.3-2.49a3.71,3.71,0,0,1,0,5.49Z" transform="translate(-28.33)" fill="#2a313f"/>
          <path id="Path_62" data-name="Path 62" d="M394.07,107.61c3.5-3,3.49-6.91-.05-9.87L398,95.45c5.63,4.25,5.66,10.2.08,14.45Z" transform="translate(-28.33)" fill="#2a313f"/>
          <path id="Path_63" data-name="Path 63" d="M369.18,97.74c-3.51,3-3.48,6.91.06,9.87l-3.93,2.29c-5.63-4.25-5.67-10.2-.09-14.45Z" transform="translate(-28.33)" fill="#2a313f"/>
          <path id="Path_64" data-name="Path 64" d="M400.79,111.49c7-5.14,7-12.49-.1-17.63l3.9-2.27c9.22,6.4,9.28,15.76.12,22.16Z" transform="translate(-28.33)" fill="#2a313f"/>
          <path id="Path_65" data-name="Path 65" d="M366.47,113.75c8.9,4.09,21.59,4.09,30.44,0l3.92,2.26c-11,5.33-27.18,5.33-38.25,0Z" transform="translate(-28.33)" fill="#2a313f"/>
          <path id="Path_66" data-name="Path 66" d="M362.47,93.86c-7.05,5.14-7,12.48.1,17.63l-3.9,2.26c-9.24-6.4-9.28-15.76-.13-22.15Z" transform="translate(-28.33)" fill="#2a313f"/>
          <path id="Path_67" data-name="Path 67" d="M373.15,109.87a24.49,24.49,0,0,0,17,0l4,2.28a33.12,33.12,0,0,1-24.94,0Z" transform="translate(-28.33)" fill="#2a313f"/>
          <path id="Path_68" data-name="Path 68" d="M377.29,102.42a1.739,1.739,0,0,0,0,.51L373,105.42a3.69,3.69,0,0,1,0-5.49Z" transform="translate(-28.33)" fill="#2a313f"/>
          <path id="Path_69" data-name="Path 69" d="M311.59,315.79l-.03,8.98-89.81,52.2.02-8.98Z" fill="#d3d3dd"/>
          <path id="Path_70" data-name="Path 70" d="M221.77,367.99l-.02,8.98-90.4-52.19.02-8.99Z" fill="#e0dee9"/>
          <path id="Path_71" data-name="Path 71" d="M311.59,315.79l-89.82,52.2-90.4-52.2,89.82-52.19Z" fill="#eaeaf4"/>
          <path id="Path_72" data-name="Path 72" d="M297.58,179.68l-.39,134.73L221.6,358.33l.39-134.72Z" fill="#d3d3dd"/>
          <path id="Path_73" data-name="Path 73" d="M221.99,223.61l-.39,134.72L145.52,314.4l.38-134.72Z" fill="#e0dee9"/>
          <path id="Path_74" data-name="Path 74" d="M297.58,179.68l-75.59,43.93L145.9,179.68l75.59-43.93Z" fill="#eaeaf4"/>
          <path id="Path_75" data-name="Path 75" d="M165.51,238.59l-.04,13.97-12.15-7.02.04-13.97Z" fill="#2a313f"/>
          <path id="Path_76" data-name="Path 76" d="M165.57,219.16l-.04,13.96-12.15-7.01.04-13.96Z" fill="#2a313f"/>
          <path id="Path_77" data-name="Path 77" d="M165.62,199.73l-.04,13.97-12.15-7.02.04-13.97Z" fill="#2a313f"/>
          <path id="Path_78" data-name="Path 78" d="M214.6,286.4l-.04,13.97L170.97,275.2l.04-13.97Z" fill="#2a313f"/>
          <path id="Path_79" data-name="Path 79" d="M214.66,266.97l-.04,13.97-43.59-25.18.03-13.96Z" fill="#2a313f"/>
          <path id="Path_80" data-name="Path 80" d="M214.72,247.54l-.04,13.96-43.6-25.17.04-13.96Z" fill="#2a313f"/>
          <path id="Path_81" data-name="Path 81" d="M214.77,228.1l-.04,13.97L171.14,216.9l.04-13.96Z" fill="#2a313f"/>
          <path id="Path_82" data-name="Path 82" d="M165.4,277.45l-.04,13.97-12.15-7.02.04-13.96Z" fill="#2a313f"/>
          <path id="Path_83" data-name="Path 83" d="M165.46,258.02l-.04,13.97-12.15-7.01.04-13.97Z" fill="#2a313f"/>
          <path id="Path_84" data-name="Path 84" d="M214.55,305.83l-.04,13.97-43.59-25.17.04-13.97Z" fill="#2a313f"/>
          <path id="Path_85" data-name="Path 85" d="M241.18,240.67l.04,13.97-12.16,7.02-.04-13.97Z" fill="#2a313f"/>
          <path id="Path_86" data-name="Path 86" d="M241.12,221.24l.04,13.97L229,242.23l-.04-13.97Z" fill="#2a313f"/>
          <path id="Path_87" data-name="Path 87" d="M290.48,270.6l.04,13.96-43.59,25.17-.04-13.96Z" fill="#2a313f"/>
          <path id="Path_88" data-name="Path 88" d="M290.43,251.16l.04,13.97-43.6,25.17-.04-13.97Z" fill="#2a313f"/>
          <path id="Path_89" data-name="Path 89" d="M290.37,231.74l.04,13.96-43.59,25.17-.04-13.97Z" fill="#2a313f"/>
          <path id="Path_90" data-name="Path 90" d="M290.32,212.3l.04,13.97-43.6,25.17-.04-13.97Z" fill="#2a313f"/>
          <path id="Path_91" data-name="Path 91" d="M290.26,192.87l.04,13.97L246.71,232l-.04-13.97Z" fill="#2a313f"/>
          <path id="Path_92" data-name="Path 92" d="M241.34,298.97l.04,13.96-12.16,7.02-.03-13.96Z" fill="#2a313f"/>
          <path id="Path_93" data-name="Path 93" d="M241.29,279.53l.03,13.97-12.15,7.02-.04-13.97Z" fill="#2a313f"/>
          <path id="Path_94" data-name="Path 94" d="M241.23,260.11l.04,13.96-12.15,7.02-.05-13.96Z" fill="#2a313f"/>
          <path id="Path_95" data-name="Path 95" d="M297.23,303.54l-.03,10.86-75.59,43.93-.03-11.12Z" fill="#323941"/>
          <path id="Path_96" data-name="Path 96" d="M221.64,347.21l-.03,11.12L145.52,314.4l.03-11.12Z" fill="#323941"/>
          <path id="Path_97" data-name="Path 97" d="M249.47,181.46a6,6,0,0,0,.85,0l4.33,2.5a16.29,16.29,0,0,1-9.48,0Z" transform="translate(-28.33)" fill="#2a313f"/>
          <path id="Path_98" data-name="Path 98" d="M230.68,165.63c11-5.33,27.17-5.33,38.26,0l-3.9,2.26c-8.91-4.1-21.59-4.1-30.44,0Z" transform="translate(-28.33)" fill="#2a313f"/>
          <path id="Path_99" data-name="Path 99" d="M237.36,169.48a33.21,33.21,0,0,1,24.94,0l-3.93,2.29a24.54,24.54,0,0,0-17.06,0Z" transform="translate(-28.33)" fill="#2a313f"/>
          <path id="Path_100" data-name="Path 100" d="M245.11,174a16.32,16.32,0,0,1,9.49,0l-4.29,2.49h-.88Z" transform="translate(-28.33)" fill="#2a313f"/>
          <path id="Path_101" data-name="Path 101" d="M254.21,179.21a2.09,2.09,0,0,0,0-.5l4.3-2.5a3.72,3.72,0,0,1,0,5.49Z" transform="translate(-28.33)" fill="#2a313f"/>
          <path id="Path_102" data-name="Path 102" d="M262.33,183.9c3.5-3,3.48-6.92-.05-9.88l3.92-2.28c5.63,4.24,5.67,10.2.09,14.44Z" transform="translate(-28.33)" fill="#2a313f"/>
          <path id="Path_103" data-name="Path 103" d="M237.43,174c-3.5,3-3.47,6.92.06,9.88l-3.93,2.28c-5.63-4.24-5.66-10.2-.08-14.44Z" transform="translate(-28.33)" fill="#2a313f"/>
          <path id="Path_104" data-name="Path 104" d="M269,187.77c7-5.13,7-12.48-.1-17.62l3.9-2.27c9.23,6.4,9.29,15.76.12,22.16Z" transform="translate(-28.33)" fill="#2a313f"/>
          <path id="Path_105" data-name="Path 105" d="M234.73,190c8.89,4.09,21.58,4.09,30.43,0l3.92,2.26c-11,5.33-27.17,5.33-38.25,0Z" transform="translate(-28.33)" fill="#2a313f"/>
          <path id="Path_106" data-name="Path 106" d="M230.72,170.15c-7,5.13-7,12.48.1,17.62L226.93,190c-9.24-6.4-9.29-15.76-.13-22.16Z" transform="translate(-28.33)" fill="#2a313f"/>
          <path id="Path_107" data-name="Path 107" d="M241.4,186.15a24.49,24.49,0,0,0,17,0l4,2.29a33.09,33.09,0,0,1-24.93,0Z" transform="translate(-28.33)" fill="#2a313f"/>
          <path id="Path_108" data-name="Path 108" d="M245.55,178.71a1.4,1.4,0,0,0,0,.5l-4.3,2.5a3.71,3.71,0,0,1,0-5.5Z" transform="translate(-28.33)" fill="#2a313f"/>
          <g id="Group_43" data-name="Group 43" opacity="0.4">
            <g id="Group_42" data-name="Group 42" clip-path="url(#clip-path-2)">
              <path id="Path_109" data-name="Path 109" d="M411.48,458.31c1.86-5-4.67-12.07-14.59-15.75S377.42,440,375.56,445s4.67,12.07,14.59,15.76,19.46,2.59,21.33-2.43" transform="translate(-28.33)" fill="#e5e5d6"/>
            </g>
          </g>
          <g id="Group_45" data-name="Group 45" opacity="0.4">
            <g id="Group_44" data-name="Group 44" clip-path="url(#clip-path-3)">
              <path id="Path_110" data-name="Path 110" d="M274.18,375.36c2.48,5.39,13.11,5.8,23.76.92s17.27-13.21,14.8-18.6-13.1-5.8-23.75-.92-17.28,13.21-14.81,18.6" transform="translate(-28.33)" fill="#e5e5d6"/>
            </g>
          </g>
          <path id="Path_111" data-name="Path 111" d="M393.17,328.86c.91-1.47,7.87-2.43,10.16,3.47.87,2.24.74,8,1.47,11.55s2.43,5.63,3.05,8.55-.39,7.8-7.41,8.66-12.43-1.6-14.09-3.84-1.7-7,0-9.56,3-4.63,3-8Z" transform="translate(-28.33)" fill="#8199b1"/>
          <path id="Path_112" data-name="Path 112" d="M397.77,327.84s-5.25-1.51-8.43,1.32a7.81,7.81,0,0,0-2.24,7.77c.43,1.66,1.27,3.92,2.59,4s8.08-13.13,8.08-13.13" transform="translate(-28.33)" fill="#8199b1"/>
          <path id="Path_113" data-name="Path 113" d="M399.77,342.14s-.34,5.85-.24,6.28,2.3.84,2.91,1.35-3.18,6.44-5.11,7.32-7.89-1.37-8.31-4.34c-.38-2.73,1.71-4.86,2.52-5.6a12.1,12.1,0,0,1,1.64,0l.18-2.83c2.61-.84,6.41-2.14,6.41-2.14" transform="translate(-28.33)" fill="#ffcea9"/>
          <path id="Path_114" data-name="Path 114" d="M385.64,353.18c0-.16-.88.31-.9.32s-.41,15-1.15,16.36h0c-1.87,3.18-6.83,8.57-6.95,9.17-.36,1.82.69.19,2.39,0,1-.12,6.59-5.82,7.86-7.12l.08.05v-.15l.17-.17a8.275,8.275,0,0,0,0-1.21c2.33-16.27-.55-17.36-1.56-17.24" transform="translate(-28.33)" fill="#ffcea9"/>
          <path id="Path_115" data-name="Path 115" d="M400.57,349c1.64.26,3.52,1.13,3.78,2a19.451,19.451,0,0,1-.47,9.76c-1.42,3.76-2.38,6.15-3.2,7.77,0,0-7.1,3-12.83-.5,0,0-.39-4-.42-6.19-5.29-4.61-.77-10.3,3.71-14.72a9.754,9.754,0,0,1,1.62,0s-4,4.72-1.22,7.41c5.95-1.8,7.13-4.47,9-5.54" transform="translate(-28.33)" fill="#f4f4f4"/>
          <path id="Path_116" data-name="Path 116" d="M388.85,334.9h0c.59-3.75,3.31-6.59,7.18-6.36a7.44,7.44,0,0,1,3.74,13.6,7.2,7.2,0,0,1-.6,1.64c-1.37,1.6-5,2.61-6.21,2.63-1,0-1.94-1-2.91-2.57-2-3.36-1.52-7.09-1.2-8.94" transform="translate(-28.33)" fill="#ffcea9"/>
          <path id="Path_117" data-name="Path 117" d="M397.23,328.6c2.71.54,4.95,1.3,5.68,4,.51,1.83,1.17,5.34.54,6.81l-.39,1.07-3.29,1.69s-1.53-1.28-1.06-5a2.62,2.62,0,0,0-.46-1.42,4.11,4.11,0,0,1-.45-1.13,4.26,4.26,0,0,0-2.13-2.31c-2.45-1.37-6-.18-6.54.31a7.16,7.16,0,0,1,8.1-4" transform="translate(-28.33)" fill="#8199b1"/>
          <path id="Path_118" data-name="Path 118" d="M402.17,447.35c-1.37,1.12-3.51.35-3.62.45a57.629,57.629,0,0,1-5,3.85c-.86.67-2.19,1.57-1.95,2.87.43,2.31,4.14,1.6,5.54.89s2.54-1.88,3.86-2.7c.95-.59,1.88-.89,2-2.09.09-.72-.58-3.29-.82-3.27" transform="translate(-28.33)" fill="#ffd15c"/>
          <path id="Path_119" data-name="Path 119" d="M403,450.14c-.19,1.15-1.1,1.46-2,2-1.35.84-2.53,2-3.93,2.75s-4.51,1.31-5.42-.35c.49,2.24,4.13,1.53,5.52.83s2.54-1.88,3.86-2.7c.95-.59,1.88-.89,2-2.09a2,2,0,0,0,0-.48" transform="translate(-28.33)" fill="#9c73ff"/>
          <path id="Path_120" data-name="Path 120" d="M392.53,445.43c-1.26,1-3.16.45-3.26.54a52.643,52.643,0,0,1-4.6,3.51c-.78.61-2,1.44-1.79,2.63.4,2.12,3.8,1.47,5.08.82s2.33-1.73,3.54-2.48c.86-.54,1.71-.82,1.85-1.91a7.349,7.349,0,0,0-.82-3.11" transform="translate(-28.33)" fill="#ffd15c"/>
          <path id="Path_121" data-name="Path 121" d="M393.33,448.1c-.17,1-1,1.34-1.86,1.87-1.24.76-2.32,1.87-3.6,2.52s-4.14,1.19-5-.32c.45,2,3.79,1.4,5.06.76s2.32-1.73,3.54-2.48c.86-.54,1.71-.82,1.85-1.91a2.408,2.408,0,0,0,0-.44" transform="translate(-28.33)" fill="#9c73ff"/>
          <path id="Path_122" data-name="Path 122" d="M385.12,381.48c.6-4.74,2.35-11.62,2.35-11.62a13.9,13.9,0,0,0,5.26,1.3,43.119,43.119,0,0,0,7.95-.77,49.012,49.012,0,0,0,2.8,4.34c1.37,1.89,4,6,3.39,13.31-.42,4.75-3.08,24.9-3.08,24.9a37.609,37.609,0,0,1,1.63,10.45,87.092,87.092,0,0,1-1.66,12.52l-1.59,11.44s-2.11,1.53-3.62.45l.19-11.19c-.18-2.74-.45-6.79-.62-9.37-.29-4.2-1-10.88-1.26-12.54s-.75-4.58-1-7.85S394.37,387,394.37,387l-.17,3.11s-.16,5-.89,11.26-1,9-1,9a13.341,13.341,0,0,1,1.42,4c.13,1.35,1.67,12,.75,17.4l-1.89,13.76a3.61,3.61,0,0,1-3.25.43l-1.11-13.87c-.75-5.28-2.32-16.46-2.57-17.92a61.279,61.279,0,0,1-.94-8.87c-.36-6-.23-19.08.38-23.82" transform="translate(-28.33)" fill="#ffcea9"/>
          <path id="Path_123" data-name="Path 123" d="M400.68,368.54l4.08,8.2s6.23,9.12-.22,32.55l1.21,7.23s-12.22,7.84-20.39,0c0,0-2.84-21.65-1.33-31.64a114.559,114.559,0,0,1,3.81-17s2,2.21,12.3.75" transform="translate(-28.33)" fill="#ff7b7b"/>
          <path id="Path_124" data-name="Path 124" d="M391.14,347.13s-3.24-1-6.69,6.2l1.29.77a55.761,55.761,0,0,1,5.4-7" transform="translate(-28.33)" fill="#ededed"/>
          <path id="Path_125" data-name="Path 125" d="M337.49,386.1l13.95-8.11,10.02,5.78-13.96,8.11Z" fill="#f4f4f4"/>
          <path id="Path_126" data-name="Path 126" d="M378,378.58a6.26,6.26,0,0,0-2.48.81,5.547,5.547,0,0,1-.88.65c-.14.07-.27.16-.42.22a1.22,1.22,0,0,0-.55.37,1.39,1.39,0,0,0-.25.77,3.448,3.448,0,0,0,0,1c.12.5.64.47.92.12a1.21,1.21,0,0,0,.23-.61,1.32,1.32,0,0,1,.59-1.07l3.33-2.07a.41.41,0,0,0-.44-.2" transform="translate(-28.33)" fill="#ffcea9"/>
          <path id="Path_127" data-name="Path 127" d="M404.52,353.58c-.46-1.9-1.95-1.29-3.22-2.4-3,4.2-1,15.56-.6,16.77l-11.39,7.26h0l-.76.48a14.109,14.109,0,0,1-4.24,1.84c-1.14.13-1.73,1.73-2.95,1.88a.47.47,0,0,0-.31.81c.49.47,1.79.08,2.68-1v.08a1,1,0,0,0,.51.81.829.829,0,0,0,.21.06.459.459,0,0,0,.06.22.91.91,0,0,0,.68.49h0a.86.86,0,0,0,.94.6,1,1,0,0,0,.68-.31,6,6,0,0,0,2.49-1.8c.31-.39,1.4-1.31,1.85-1.72,3.09-1.32,12.36-5.28,12.77-5.85.62-.84,1.27-15.56.61-18.27" transform="translate(-28.33)" fill="#ffcea9"/>
          <path id="Path_128" data-name="Path 128" d="M405.56,358.69s-3.65,1.64-6.67.11l.44-5.7s0-3.07,2.78-3.37,4.13,3.2,3.45,9" transform="translate(-28.33)" fill="#ededed"/>
          <path id="Path_129" data-name="Path 129" d="M287.35,40l.29-.13c.38-.16.76-.3,1.14-.43h.07c.35-.12.7-.22,1-.32h.22a15,15,0,0,1,1.66-.36h.12c.43-.06.86-.1,1.28-.12h1.68a6.405,6.405,0,0,1,.88.1h.27c.34.06.68.14,1,.23h.12a8.151,8.151,0,0,1,.83.29l.27.12.73.35.25.13h0L264.39,19.65l-.11-.06-.14-.07-.73-.35-.14-.07-.12-.05c-.28-.11-.56-.21-.84-.29h-.1c-.33-.09-.66-.17-1-.23h-.27c-.29,0-.58-.08-.88-.1h-1.68a9.528,9.528,0,0,0-1.28.12H257a15,15,0,0,0-1.66.36h-.22c-.35.1-.7.2-1,.32h-.07c-.38.13-.76.27-1.14.43h-.09l-.2.1c-.35.15-.71.31-1.07.49-.12.06-.25.11-.37.18-.45.22-.9.46-1.35.73L284.66,41.4c.45-.27.9-.51,1.35-.73l.37-.18c.36-.18.71-.34,1.07-.49" transform="translate(-28.33)" fill="#eaeaf4"/>
          <path id="Path_130" data-name="Path 130" d="M267,32.52c.58-.26,1.16-.5,1.72-.7h.08a14.262,14.262,0,0,1,1.48-.41q.42-.11.84-.18a9.89,9.89,0,0,1,1-.16l.6-.06h1.58a11.729,11.729,0,0,1,1.48.19l.36.08a10.627,10.627,0,0,1,1.1.32l.34.12a8.768,8.768,0,0,1,1.31.63l-34.73-20.3-.11-.06a10.419,10.419,0,0,0-1-.49l-.2-.07-.34-.12-.52-.19L241.4,11l-.36-.08h-.19a11.758,11.758,0,0,0-1.21-.15h-1.71l-.6.07h-.55l-.5.11q-.42.07-.84.18l-.44.09a9.748,9.748,0,0,0-1,.32h-.08c-.39.14-.79.29-1.2.46l-.52.23-.49.23c-.61.28-1.22.59-1.84.95s-1.5.92-2.24,1.45L262.46,35.1c.73-.52,1.48-1,2.24-1.45a17.294,17.294,0,0,1,1.84-.95l.49-.22" transform="translate(-28.33)" fill="#eaeaf4"/>
          <path id="Path_131" data-name="Path 131" d="M234.1,22.65l.53-.23c.52-.21,1-.41,1.55-.59l.29-.11c.61-.2,1.21-.39,1.81-.55.34-.1.69-.18,1-.26l.51-.12c.49-.11,1-.19,1.45-.27h.08c.48-.07,1-.12,1.42-.17h1.28a18.08,18.08,0,0,1,1.95,0h.34a9.992,9.992,0,0,1,1.52.18l.47.08A15.212,15.212,0,0,1,250,21h.07a15.37,15.37,0,0,1,1.53.54l.43.18c.43.19.84.39,1.25.61l.4.21h0L218.86,2.27l-.18-.1-.22-.11c-.4-.22-.82-.42-1.25-.61L217,1.34l-.2-.07a15.371,15.371,0,0,0-1.53-.54h-.05A15.21,15.21,0,0,0,213.5.32h-.47c-.5-.08-1-.14-1.52-.18a2.13,2.13,0,0,1-.25,0h-.08a18.28,18.28,0,0,0-2,0h-1.27c-.46.05-.94.1-1.41.17h-.07c-.48.07-1,.16-1.45.27a2.311,2.311,0,0,0-.52.12c-.17.04-.62.14-.93.23h-.1c-.6.16-1.2.35-1.81.55l-.29.11c-.51.18-1,.38-1.55.59l-.17.06c-.12,0-.24.12-.36.16-.55.24-1.1.49-1.66.76l-.61.3c-.72.36-1.44.74-2.16,1.16-1,.57-2,1.19-2.94,1.84-.34.23-.66.49-1,.73-.62.44-1.25.88-1.86,1.35a12.952,12.952,0,0,0-1.14,1c-.55.44-1.1.88-1.64,1.35s-.78.73-1.18,1.1-1,.92-1.51,1.41l-.07.06q-1.12,1.13-2.22,2.31l-.6.67c-.28.31-.56.61-.84.93s-.36.44-.54.66c-.52.62-1,1.24-1.54,1.87-.2.26-.42.5-.63.77s-.29.4-.44.6c-.38.49-.74,1-1.11,1.5-.23.32-.47.62-.69.94s-.3.46-.46.68c-.3.44-.6.89-.89,1.34s-.42.6-.62.91l-.54.89-.76,1.24-.44.73c-.25.42-.47.84-.71,1.26l-.63,1.14-.25.45c-.34.64-.66,1.29-1,1.94l-.39.78-.08.16c-.47,1-.91,1.94-1.34,2.92l-.06.15c-.12.27-.22.55-.34.83-.28.68-.57,1.35-.83,2-.06.14-.1.27-.15.41-.17.44-.32.89-.48,1.33s-.36,1-.52,1.44c-.06.2-.11.39-.17.58-.18.55-.34,1.1-.51,1.65s-.26.81-.37,1.22c-.05.19-.09.38-.14.58-.19.72-.36,1.43-.53,2.15-.09.38-.2.76-.28,1.13s-.13.62-.19.93c-.35.2-.71.38-1.07.59-.76.44-1.5.92-2.24,1.41l-.38.25c-.71.48-1.41,1-2.1,1.52l-.4.32c-.7.55-1.39,1.11-2.07,1.71l-.18.16c-.66.58-1.3,1.19-1.94,1.81l-.2.18-.12.13c-.49.48-1,1-1.45,1.48l-.07.08c-.45.49-.9,1-1.34,1.48l-.12.14-.16.19c-.71.83-1.41,1.68-2.09,2.55l-.06.07-.15.21c-.54.7-1.07,1.42-1.58,2.14l-.16.22a.41.41,0,0,0-.07.11c-.5.7-1,1.42-1.44,2.14l-.14.21a3.367,3.367,0,0,0-.19.32q-.57.89-1.11,1.8a2.609,2.609,0,0,1-.17.28l-.06.11c-.41.7-.8,1.41-1.18,2.12l-.09.17-.18.35q-.45.85-.87,1.71l-.18.36a2,2,0,0,1-.1.21c-.34.73-.68,1.45-1,2.19v.06l-.09.24c-.29.66-.56,1.32-.82,2l-.13.33a.815.815,0,0,1-.1.27c-.3.78-.58,1.57-.85,2.36h0l-.05.14c-.27.82-.51,1.64-.75,2.45a2.8,2.8,0,0,1-.09.31,1.362,1.362,0,0,1,0,.17c-.26.94-.49,1.89-.7,2.84l-.06.25a2.2,2.2,0,0,1-.07.37c-.08.37-.15.75-.21,1.12s-.1.51-.14.77-.12.76-.18,1.15a3.353,3.353,0,0,1-.08.54.711.711,0,0,1,0,.14c-.1.81-.18,1.63-.24,2.43v.52c0,.83-.08,1.66-.08,2.47,0,6.17,1.52,11.08,4.11,14.51a14.39,14.39,0,0,0,4.18,3.74l34.83,20.23c-5.1-3-8.27-9.27-8.29-18.24,0-.81,0-1.64.08-2.47v-.51c.06-.81.14-1.63.24-2.44l.09-.68c.06-.39.11-.77.18-1.15s.09-.51.13-.77.14-.75.22-1.12a3.423,3.423,0,0,1,.13-.62c.21-.94.44-1.89.7-2.84a2.141,2.141,0,0,1,.13-.48c.24-.82.48-1.64.75-2.45l.06-.18c.26-.8.55-1.58.85-2.37.07-.2.15-.4.23-.6.26-.66.53-1.33.81-2,.05-.1.09-.2.13-.3.32-.74.66-1.46,1-2.19l.28-.57q.42-.85.87-1.71l.27-.52c.38-.71.77-1.42,1.18-2.11l.24-.4c.35-.61.72-1.21,1.1-1.81l.33-.52c.46-.72.94-1.44,1.44-2.15l.22-.31c.52-.73,1.05-1.45,1.59-2.15l.21-.28c.68-.87,1.38-1.72,2.09-2.55l.28-.33c.44-.5.89-1,1.34-1.47l.07-.09c.48-.5,1-1,1.45-1.48l.32-.31c.64-.62,1.29-1.23,1.94-1.81l.18-.16q1-.89,2.07-1.71l.4-.32c.69-.53,1.39-1,2.1-1.52l.37-.25c.74-.49,1.49-1,2.24-1.4l1.08-.6c.14-.68.31-1.37.47-2.06s.34-1.43.53-2.15.33-1.2.51-1.8.33-1.1.51-1.65.45-1.34.69-2c.16-.45.31-.9.48-1.34.31-.82.64-1.63,1-2.44.12-.28.22-.57.34-.84.47-1.09,1-2.16,1.48-3.23l.4-.78c.39-.8.8-1.6,1.23-2.39.21-.38.42-.76.64-1.14q.56-1,1.14-2c.25-.42.5-.84.76-1.25.38-.61.76-1.21,1.16-1.8s.59-.9.89-1.34S210,43.5,210.41,43s.73-1,1.11-1.51.71-.91,1.07-1.36c.51-.63,1-1.25,1.54-1.87s.91-1.07,1.38-1.59c.2-.23.4-.45.61-.67q1.11-1.22,2.28-2.37c.5-.49,1-1,1.53-1.43s.76-.73,1.16-1.07,1.1-.92,1.65-1.38c.38-.31.75-.63,1.13-.93.61-.47,1.24-.91,1.87-1.36l1-.72c1-.65,2-1.27,2.94-1.84.72-.42,1.44-.8,2.16-1.16l.61-.3c.56-.27,1.11-.52,1.66-.75" transform="translate(-28.33)" fill="#eaeaf4"/>
          <path id="Path_132" data-name="Path 132" d="M229.67,24.86c15.75-9.09,29-4.33,32.8,10.28a25.85,25.85,0,0,1,2.24-1.45c9.93-5.73,18.18-2.2,19.85,7.74C296,34.81,305,40,305,52.73c0,11.82-7.67,26-17.64,33.15-.82.58-1.6,1.1-2.4,1.56a23.78,23.78,0,0,1-2.3,1.17l-86.54,50.12c-15.71,9.07-28.48,1.8-28.53-16.26s12.63-40,28.34-49.09c.37-.22.72-.4,1.08-.6,3.72-18.87,16.9-38.84,32.62-47.92" transform="translate(-28.33)" fill="#d3d3dd"/>
          <path id="Path_133" data-name="Path 133" d="M339.23,97.92a39.491,39.491,0,0,1-5.68,7.75c-.62.71-5.35-1.09-4.36-1.6s4.09-4.83,5.64-7.71a97.283,97.283,0,0,0,3.31-10.52c1-3.52,1.81-8.69,2.52-11.13A4.78,4.78,0,0,1,344.29,71c1.7-.39,2.8.07,2.49,2.13-.54,3.62-3.37,17.67-7.55,24.77" transform="translate(-28.33)" fill="#ffcea9"/>
          <path id="Path_134" data-name="Path 134" d="M341.94,153c-1.46,1.2-3.63.11-3.73.22a66.638,66.638,0,0,1-5.42,4.5c-.91.72-2.34,1.69-2.08,3.07.46,2.47,4.42,1.71,5.91.95s2.71-2,4.13-2.88c1-.63,2-.95,2.15-2.23.1-.76-.69-3.66-1-3.63" transform="translate(-28.33)" fill="#ffd15c"/>
          <path id="Path_135" data-name="Path 135" d="M342.88,156.07c-.19,1.22-1.17,1.56-2.17,2.18-1.43.89-2.7,2.18-4.19,2.93s-4.82,1.39-5.79-.37c.53,2.38,4.41,1.63,5.89.88s2.71-2,4.13-2.88c1-.63,2-.95,2.15-2.23a1.841,1.841,0,0,0,0-.51" transform="translate(-28.33)" fill="#9c73ff"/>
          <path id="Path_136" data-name="Path 136" d="M327.07,144.38c-1.47,1.2-4-.11-4.15,0a54,54,0,0,1-4.83,4.37c-.92.72-2.34,1.68-2.09,3.06.47,2.48,4.42,1.72,5.92,1s2.71-2,4.12-2.89c1-.62,2-.95,2.16-2.22.09-.77-.87-3.31-1.13-3.28" transform="translate(-28.33)" fill="#ffd15c"/>
          <path id="Path_137" data-name="Path 137" d="M328.16,147.32c-.2,1.22-1.18,1.56-2.18,2.18-1.43.89-2.7,2.18-4.19,2.93s-4.82,1.39-5.79-.37c.53,2.38,4.42,1.63,5.89.89s2.71-2,4.13-2.89c1-.63,2-.95,2.15-2.22a2.32,2.32,0,0,0,0-.52" transform="translate(-28.33)" fill="#9c73ff"/>
          <path id="Path_138" data-name="Path 138" d="M361.56,105.93c1.63,10.16-2.89,13.95-8.75,16.11-4.21,1.55-10.25,3.94-10.25,3.94s.09,2.23.13,7.23c.05,4.41-.54,20.49-.54,20.49a4.9,4.9,0,0,1-4.49,0s-2.36-12.32-2.86-17.87c-.68-7.54-1.84-12.47-1.45-14.09.33-1.43,8.57-5.48,11.19-7.65l-17.26,5.78a30.676,30.676,0,0,1,.5,5.68c-.16,6-.49,18.92-.49,18.92s-2.37,1.71-4.39,0c0,0-4.34-25.62-3.81-29,.5-3.22,15.71-9.79,18.38-12.06a4.3,4.3,0,0,1,3.38-.91Z" transform="translate(-28.33)" fill="#ff7b7b"/>
          <path id="Path_139" data-name="Path 139" d="M320.18,110.17l11.59-6.7a.67.67,0,0,1,.67,0l20.34,11.75-11.93,6.88Z" transform="translate(-28.33)" fill="#f4f4f4"/>
          <path id="Path_140" data-name="Path 140" d="M341.39,119.64l.89.51c.07,0,.06.12,0,.16l-.85.49a.31.31,0,0,1-.28,0l-.88-.51c-.07,0-.06-.11,0-.16l.84-.49a.31.31,0,0,1,.28,0" transform="translate(-28.33)" fill="#3a2c6d"/>
          <path id="Path_141" data-name="Path 141" d="M340.14,118.92l.89.51c.07,0,.06.11,0,.16l-.85.49a.31.31,0,0,1-.28,0l-.88-.51c-.07,0-.07-.11,0-.16l.84-.49a.31.31,0,0,1,.28,0" transform="translate(-28.33)" fill="#3a2c6d"/>
          <path id="Path_142" data-name="Path 142" d="M338.88,118.19l.88.51c.07,0,.06.11,0,.16l-.84.49a.31.31,0,0,1-.28,0l-.89-.51c-.07,0-.06-.12,0-.16l.85-.49a.31.31,0,0,1,.28,0" transform="translate(-28.33)" fill="#3a2c6d"/>
          <path id="Path_143" data-name="Path 143" d="M337.64,117.47l.88.51c.08,0,.07.12,0,.17l-.84.48a.28.28,0,0,1-.28,0l-.89-.51c-.07,0-.06-.11,0-.16l.84-.48a.31.31,0,0,1,.28,0" transform="translate(-28.33)" fill="#3a2c6d"/>
          <path id="Path_144" data-name="Path 144" d="M336.39,116.75l.88.51c.07,0,.07.12,0,.16l-.84.49a.31.31,0,0,1-.28,0l-.89-.51c-.07,0-.06-.11,0-.16l.85-.49a.31.31,0,0,1,.28,0" transform="translate(-28.33)" fill="#3a2c6d"/>
          <path id="Path_145" data-name="Path 145" d="M335.14,116l.88.51c.07,0,.06.11,0,.16l-.84.49a.31.31,0,0,1-.28,0l-.89-.51c-.07,0-.06-.11,0-.16l.85-.49a.31.31,0,0,1,.28,0" transform="translate(-28.33)" fill="#3a2c6d"/>
          <path id="Path_146" data-name="Path 146" d="M333.89,115.31l.88.51c.07,0,.06.11,0,.16l-.84.49a.37.37,0,0,1-.29,0l-.88-.51c-.07,0-.06-.12,0-.16l.85-.49a.28.28,0,0,1,.28,0" transform="translate(-28.33)" fill="#3a2c6d"/>
          <path id="Path_147" data-name="Path 147" d="M332.64,114.58l.88.51c.07,0,.06.12,0,.17l-.84.48a.3.3,0,0,1-.29,0l-.88-.51c-.07,0-.06-.11,0-.16l.84-.48a.33.33,0,0,1,.29,0" transform="translate(-28.33)" fill="#3a2c6d"/>
          <path id="Path_148" data-name="Path 148" d="M331.38,113.86l.89.51c.07,0,.06.12,0,.16l-.85.49a.31.31,0,0,1-.28,0l-.88-.51c-.07,0-.06-.11,0-.16l.84-.49a.31.31,0,0,1,.28,0" transform="translate(-28.33)" fill="#3a2c6d"/>
          <path id="Path_149" data-name="Path 149" d="M330.13,113.14l.89.51c.07,0,.06.11,0,.16l-.85.49a.31.31,0,0,1-.28,0l-.88-.51c-.07,0-.07-.11,0-.16l.84-.49a.31.31,0,0,1,.28,0" transform="translate(-28.33)" fill="#3a2c6d"/>
          <path id="Path_150" data-name="Path 150" d="M328.88,112.42l.89.51c.07,0,.06.11,0,.16l-.84.49a.34.34,0,0,1-.28,0l-.88-.51c-.08,0-.07-.12,0-.16l.84-.49a.28.28,0,0,1,.28,0" transform="translate(-28.33)" fill="#3a2c6d"/>
          <path id="Path_151" data-name="Path 151" d="M327.63,111.69l.88.51c.08,0,.07.12,0,.17l-.84.48a.31.31,0,0,1-.28,0l-.89-.51c-.07,0-.06-.12,0-.17l.84-.48a.31.31,0,0,1,.28,0" transform="translate(-28.33)" fill="#3a2c6d"/>
          <path id="Path_152" data-name="Path 152" d="M326.38,111l.88.51c.07,0,.07.12,0,.16l-.84.49a.31.31,0,0,1-.28,0l-.89-.51c-.07,0-.06-.11,0-.16l.85-.49a.31.31,0,0,1,.28,0" transform="translate(-28.33)" fill="#3a2c6d"/>
          <path id="Path_153" data-name="Path 153" d="M324.53,109.9l1.48.86c.07,0,.07.11,0,.16l-.84.49a.31.31,0,0,1-.28,0l-1.49-.86c-.07,0-.06-.11,0-.16l.84-.49a.33.33,0,0,1,.29,0" transform="translate(-28.33)" fill="#3a2c6d"/>
          <path id="Path_154" data-name="Path 154" d="M340.75,117.87l.88.51c.08,0,.07.11,0,.16l-.84.49a.31.31,0,0,1-.28,0l-.89-.51c-.07,0-.06-.11,0-.16l.84-.49a.31.31,0,0,1,.28,0" transform="translate(-28.33)" fill="#3a2c6d"/>
          <path id="Path_155" data-name="Path 155" d="M339.5,117.14l.88.51c.07,0,.06.12,0,.17l-.84.48a.31.31,0,0,1-.28,0l-.89-.51c-.07,0-.06-.12,0-.17l.85-.48a.31.31,0,0,1,.28,0" transform="translate(-28.33)" fill="#3a2c6d"/>
          <path id="Path_156" data-name="Path 156" d="M338.24,116.42l.89.51c.07,0,.06.12,0,.16l-.85.49a.31.31,0,0,1-.28,0l-.88-.51c-.07,0-.06-.11,0-.16l.84-.49a.31.31,0,0,1,.28,0" transform="translate(-28.33)" fill="#3a2c6d"/>
          <path id="Path_157" data-name="Path 157" d="M337,115.7l.88.51c.08,0,.07.11,0,.16l-.84.49a.31.31,0,0,1-.28,0l-.88-.51c-.08,0-.07-.12,0-.16l.84-.49a.31.31,0,0,1,.28,0" transform="translate(-28.33)" fill="#3a2c6d"/>
          <path id="Path_158" data-name="Path 158" d="M335.75,115l.88.51c.07,0,.06.12,0,.16l-.84.49a.31.31,0,0,1-.28,0l-.89-.51c-.07,0-.06-.11,0-.16l.85-.49a.31.31,0,0,1,.28,0" transform="translate(-28.33)" fill="#3a2c6d"/>
          <path id="Path_159" data-name="Path 159" d="M334.49,114.26l.89.51c.07,0,.06.11,0,.16l-.85.49a.34.34,0,0,1-.28,0l-.88-.51c-.07,0-.06-.12,0-.16l.84-.49a.28.28,0,0,1,.28,0" transform="translate(-28.33)" fill="#3a2c6d"/>
          <path id="Path_160" data-name="Path 160" d="M333.24,113.53l.88.51c.08,0,.07.12,0,.17l-.84.48a.28.28,0,0,1-.28,0l-.88-.51c-.08,0-.07-.11,0-.16l.84-.49a.34.34,0,0,1,.28,0" transform="translate(-28.33)" fill="#3a2c6d"/>
          <path id="Path_161" data-name="Path 161" d="M332,112.81l.88.51c.07,0,.06.11,0,.16L332,114a.31.31,0,0,1-.28,0l-.89-.51c-.07,0-.06-.11,0-.16l.85-.49a.31.31,0,0,1,.28,0" transform="translate(-28.33)" fill="#3a2c6d"/>
          <path id="Path_162" data-name="Path 162" d="M330.73,112.09l.89.51c.07,0,.06.11,0,.16l-.85.49a.34.34,0,0,1-.28,0l-.88-.51c-.07,0-.06-.12,0-.17l.84-.48a.28.28,0,0,1,.28,0" transform="translate(-28.33)" fill="#3a2c6d"/>
          <path id="Path_163" data-name="Path 163" d="M329.48,111.36l.88.51c.08,0,.07.12,0,.16l-.84.49a.31.31,0,0,1-.28,0l-.89-.51c-.07,0-.06-.11,0-.16l.84-.49a.31.31,0,0,1,.28,0" transform="translate(-28.33)" fill="#3a2c6d"/>
          <path id="Path_164" data-name="Path 164" d="M328.23,110.64l.88.51c.07,0,.06.11,0,.16l-.84.49a.31.31,0,0,1-.28,0l-.89-.51c-.07,0-.06-.12,0-.16l.85-.49a.31.31,0,0,1,.28,0" transform="translate(-28.33)" fill="#3a2c6d"/>
          <path id="Path_165" data-name="Path 165" d="M327,109.91l.89.51c.07,0,.06.12,0,.17l-.85.48a.31.31,0,0,1-.28,0l-.88-.51c-.07,0-.06-.12,0-.17l.84-.48a.31.31,0,0,1,.28,0" transform="translate(-28.33)" fill="#3a2c6d"/>
          <path id="Path_166" data-name="Path 166" d="M342,118.59l1.49.86c.07,0,.06.12,0,.16l-.84.49a.31.31,0,0,1-.28,0l-1.49-.86c-.07,0-.06-.11,0-.16l.84-.49a.34.34,0,0,1,.28,0" transform="translate(-28.33)" fill="#3a2c6d"/>
          <path id="Path_167" data-name="Path 167" d="M324.59,109.86l.88.51a.3.3,0,0,0,.26,0l.89-.52c.08,0,.08-.11,0-.15h-.07a.08.08,0,0,1,0-.14l.95-.55a.08.08,0,0,0,0-.15l-.56-.32a.32.32,0,0,0-.27,0l-.88.51-.18.1-.13.08-.13.08-.76.43c-.08,0-.08.11,0,.16" transform="translate(-28.33)" fill="#3a2c6d"/>
          <path id="Path_168" data-name="Path 168" d="M346.24,116.84l.88.51c.08,0,.07.11,0,.16l-.84.49a.34.34,0,0,1-.28,0l-.89-.51c-.07,0-.06-.12,0-.16l.84-.49a.28.28,0,0,1,.28,0" transform="translate(-28.33)" fill="#3a2c6d"/>
          <path id="Path_169" data-name="Path 169" d="M345,116.12l.89.51c.07,0,.06.11,0,.16l-.85.49a.34.34,0,0,1-.28,0l-.88-.51c-.07,0-.07-.12,0-.16l.84-.49a.28.28,0,0,1,.28,0" transform="translate(-28.33)" fill="#3a2c6d"/>
          <path id="Path_170" data-name="Path 170" d="M343.74,115.4l.89.51c.07,0,.06.11,0,.16l-.84.49a.37.37,0,0,1-.29,0l-.88-.51c-.07,0-.06-.12,0-.16l.84-.49a.28.28,0,0,1,.28,0" transform="translate(-28.33)" fill="#3a2c6d"/>
          <path id="Path_171" data-name="Path 171" d="M333.12,109.26l.88.51c.08,0,.07.12,0,.16l-.84.49a.31.31,0,0,1-.28,0l-.89-.51c-.07,0-.06-.11,0-.16l.85-.49a.31.31,0,0,1,.28,0" transform="translate(-28.33)" fill="#3a2c6d"/>
          <path id="Path_172" data-name="Path 172" d="M331.87,108.54l.89.51c.07,0,.06.12,0,.16l-.85.49a.31.31,0,0,1-.28,0l-.88-.51c-.08,0-.07-.11,0-.16l.84-.49a.31.31,0,0,1,.28,0" transform="translate(-28.33)" fill="#3a2c6d"/>
          <path id="Path_173" data-name="Path 173" d="M330.62,107.82l.89.51c.07,0,.06.12,0,.16l-.85.49a.31.31,0,0,1-.28,0l-.88-.51c-.07,0-.06-.11,0-.16l.84-.49a.31.31,0,0,1,.28,0" transform="translate(-28.33)" fill="#3a2c6d"/>
          <path id="Path_174" data-name="Path 174" d="M329.38,107.1l.88.51c.07,0,.06.12,0,.16l-.84.49a.33.33,0,0,1-.29,0l-.88-.51c-.07,0-.06-.11,0-.16l.85-.49a.31.31,0,0,1,.28,0" transform="translate(-28.33)" fill="#3a2c6d"/>
          <path id="Path_175" data-name="Path 175" d="M342.18,114.49l1.2.7c.07,0,.06.11,0,.16l-.84.49a.34.34,0,0,1-.28,0l-1.21-.7c-.07,0-.06-.11,0-.16l.84-.49a.33.33,0,0,1,.29,0" transform="translate(-28.33)" fill="#3a2c6d"/>
          <path id="Path_176" data-name="Path 176" d="M334.37,110l1.2.7c.07,0,.07.11,0,.16l-.84.49a.31.31,0,0,1-.28,0l-1.21-.7c-.07,0-.06-.11,0-.16l.85-.49a.34.34,0,0,1,.28,0" transform="translate(-28.33)" fill="#3a2c6d"/>
          <path id="Path_177" data-name="Path 177" d="M335.94,110.89l5.87,3.39c.07,0,.06.11,0,.16l-.84.49a.31.31,0,0,1-.28,0l-5.88-3.39c-.07,0-.06-.12,0-.16l.84-.49a.33.33,0,0,1,.29,0" transform="translate(-28.33)" fill="#3a2c6d"/>
          <path id="Path_178" data-name="Path 178" d="M341.62,117l.89.51c.07,0,.06.12,0,.16l-.85.49a.28.28,0,0,1-.28,0l-.88-.51c-.07,0-.07-.11,0-.16l.84-.49a.34.34,0,0,1,.28,0" transform="translate(-28.33)" fill="#3a2c6d"/>
          <path id="Path_179" data-name="Path 179" d="M340.37,116.25l.89.51c.07,0,.06.12,0,.16l-.85.49a.31.31,0,0,1-.28,0l-.88-.51c-.07,0-.07-.11,0-.16l.84-.49a.31.31,0,0,1,.28,0" transform="translate(-28.33)" fill="#3a2c6d"/>
          <path id="Path_180" data-name="Path 180" d="M339.12,115.53l.89.51c.07,0,.06.11,0,.16l-.85.49a.31.31,0,0,1-.28,0l-.88-.51c-.07,0-.07-.11,0-.16l.84-.49a.31.31,0,0,1,.28,0" transform="translate(-28.33)" fill="#3a2c6d"/>
          <path id="Path_181" data-name="Path 181" d="M337.87,114.81l.89.51c.07,0,.06.11,0,.16l-.85.49a.31.31,0,0,1-.28,0l-.88-.51c-.07,0-.07-.12,0-.16l.84-.49a.31.31,0,0,1,.28,0" transform="translate(-28.33)" fill="#3a2c6d"/>
          <path id="Path_182" data-name="Path 182" d="M336.62,114.09l.89.51c.07,0,.06.11,0,.16l-.85.49a.34.34,0,0,1-.28,0l-.88-.51c-.07,0-.06-.12,0-.17l.84-.48a.28.28,0,0,1,.28,0" transform="translate(-28.33)" fill="#3a2c6d"/>
          <path id="Path_183" data-name="Path 183" d="M335.37,113.36l.89.51c.07,0,.06.12,0,.17l-.85.48a.31.31,0,0,1-.28,0l-.88-.51c-.07,0-.06-.12,0-.17l.84-.48a.31.31,0,0,1,.28,0" transform="translate(-28.33)" fill="#3a2c6d"/>
          <path id="Path_184" data-name="Path 184" d="M334.12,112.64l.89.51c.07,0,.06.12,0,.16l-.85.49a.28.28,0,0,1-.28,0l-.88-.51c-.07,0-.06-.11,0-.16l.84-.49a.34.34,0,0,1,.28,0" transform="translate(-28.33)" fill="#3a2c6d"/>
          <path id="Path_185" data-name="Path 185" d="M332.87,111.92l.89.51c.07,0,.06.12,0,.16l-.85.49a.31.31,0,0,1-.28,0l-.88-.51c-.07,0-.06-.11,0-.16l.84-.49a.31.31,0,0,1,.28,0" transform="translate(-28.33)" fill="#3a2c6d"/>
          <path id="Path_186" data-name="Path 186" d="M331.62,111.2l.89.51c.07,0,.06.11,0,.16l-.85.49a.31.31,0,0,1-.28,0l-.88-.51c-.07,0-.06-.11,0-.16l.84-.49a.31.31,0,0,1,.28,0" transform="translate(-28.33)" fill="#3a2c6d"/>
          <path id="Path_187" data-name="Path 187" d="M330.38,110.48l.88.51c.07,0,.06.11,0,.16l-.85.49a.31.31,0,0,1-.28,0l-.88-.51c-.07,0-.06-.12,0-.16l.84-.49a.33.33,0,0,1,.29,0" transform="translate(-28.33)" fill="#3a2c6d"/>
          <path id="Path_188" data-name="Path 188" d="M329.13,109.76l.88.51c.07,0,.06.11,0,.16l-.85.49a.34.34,0,0,1-.28,0l-.88-.51c-.07,0-.06-.12,0-.17l.84-.48a.3.3,0,0,1,.29,0" transform="translate(-28.33)" fill="#3a2c6d"/>
          <path id="Path_189" data-name="Path 189" d="M327.88,109l.88.51c.07,0,.06.12,0,.17l-.84.48a.33.33,0,0,1-.29,0l-.88-.51c-.07,0-.06-.12,0-.17l.84-.48a.33.33,0,0,1,.29,0" transform="translate(-28.33)" fill="#3a2c6d"/>
          <path id="Path_190" data-name="Path 190" d="M342.87,117.69l1.83,1.06c.07,0,.06.11,0,.16l-.84.49a.31.31,0,0,1-.28,0l-1.83-1.06c-.08,0-.07-.11,0-.16l.84-.48a.31.31,0,0,1,.28,0" transform="translate(-28.33)" fill="#3a2c6d"/>
          <path id="Path_191" data-name="Path 191" d="M343.46,116.63l.88.51c.07,0,.06.11,0,.16l-.84.49a.31.31,0,0,1-.28,0l-.89-.51c-.07,0-.06-.11,0-.16l.85-.49a.31.31,0,0,1,.28,0" transform="translate(-28.33)" fill="#3a2c6d"/>
          <path id="Path_192" data-name="Path 192" d="M342.21,115.91l.88.51c.07,0,.06.11,0,.16l-.84.49a.31.31,0,0,1-.28,0l-.89-.51c-.07,0-.06-.12,0-.16l.85-.49a.31.31,0,0,1,.28,0" transform="translate(-28.33)" fill="#3a2c6d"/>
          <path id="Path_193" data-name="Path 193" d="M341,115.19l.88.51c.07,0,.06.11,0,.16l-.84.49a.33.33,0,0,1-.29,0l-.88-.51c-.07,0-.06-.12,0-.16l.85-.49a.31.31,0,0,1,.28,0" transform="translate(-28.33)" fill="#3a2c6d"/>
          <path id="Path_194" data-name="Path 194" d="M339.71,114.47l.88.51c.07,0,.06.11,0,.16l-.84.49a.34.34,0,0,1-.28,0l-.89-.51c-.07,0-.06-.12,0-.17l.85-.48a.28.28,0,0,1,.28,0" transform="translate(-28.33)" fill="#3a2c6d"/>
          <path id="Path_195" data-name="Path 195" d="M338.46,113.74l.88.51c.07,0,.06.12,0,.17l-.84.48a.31.31,0,0,1-.28,0l-.89-.51c-.07,0-.06-.12,0-.17l.85-.48a.31.31,0,0,1,.28,0" transform="translate(-28.33)" fill="#3a2c6d"/>
          <path id="Path_196" data-name="Path 196" d="M337.21,113l.88.51c.07,0,.06.12,0,.17l-.84.48a.28.28,0,0,1-.28,0l-.89-.51c-.07,0-.06-.11,0-.16l.85-.49a.34.34,0,0,1,.28,0" transform="translate(-28.33)" fill="#3a2c6d"/>
          <path id="Path_197" data-name="Path 197" d="M336,112.3l.88.51c.07,0,.06.12,0,.16l-.84.49a.31.31,0,0,1-.28,0l-.89-.51c-.07,0-.06-.11,0-.16l.85-.49a.31.31,0,0,1,.28,0" transform="translate(-28.33)" fill="#3a2c6d"/>
          <path id="Path_198" data-name="Path 198" d="M334.71,111.58l.88.51c.08,0,.06.11,0,.16l-.84.49a.31.31,0,0,1-.28,0l-.89-.51c-.07,0-.06-.11,0-.16l.85-.49a.31.31,0,0,1,.28,0" transform="translate(-28.33)" fill="#3a2c6d"/>
          <path id="Path_199" data-name="Path 199" d="M333.46,110.86l.88.51c.08,0,.07.11,0,.16l-.84.49a.31.31,0,0,1-.28,0l-.89-.51c-.07,0-.06-.12,0-.16l.85-.49a.31.31,0,0,1,.28,0" transform="translate(-28.33)" fill="#3a2c6d"/>
          <path id="Path_200" data-name="Path 200" d="M332.21,110.14l.88.51c.08,0,.07.11,0,.16l-.84.49a.34.34,0,0,1-.28,0l-.89-.51c-.07,0-.06-.12,0-.16l.85-.49a.28.28,0,0,1,.28,0" transform="translate(-28.33)" fill="#3a2c6d"/>
          <path id="Path_201" data-name="Path 201" d="M331,109.42l.88.51c.08,0,.07.11,0,.16l-.84.49a.34.34,0,0,1-.28,0l-.89-.51c-.07,0-.06-.12,0-.17l.85-.48a.28.28,0,0,1,.28,0" transform="translate(-28.33)" fill="#3a2c6d"/>
          <path id="Path_202" data-name="Path 202" d="M328.16,107.8l2.43,1.4c.08,0,.07.12,0,.17l-.84.48a.28.28,0,0,1-.28,0l-2.43-1.4c-.07,0-.06-.11,0-.16l.84-.49a.31.31,0,0,1,.28,0" transform="translate(-28.33)" fill="#3a2c6d"/>
          <path id="Path_203" data-name="Path 203" d="M344.71,117.35l1.2.7c.07,0,.06.11,0,.16l-.84.49a.34.34,0,0,1-.28,0l-1.21-.7c-.07,0-.06-.11,0-.16l.85-.49a.31.31,0,0,1,.28,0" transform="translate(-28.33)" fill="#3a2c6d"/>
          <path id="Path_204" data-name="Path 204" d="M323.27,110.63,341,120.87c.07,0,.06.12,0,.17l-.42.24a.33.33,0,0,1-.29,0L322.55,111c-.08,0-.07-.11,0-.16l.42-.24a.28.28,0,0,1,.28,0" transform="translate(-28.33)" fill="#3a2c6d"/>
          <path id="Path_205" data-name="Path 205" d="M315.7,111.08l-.12.07-3.06,1.77-5.45-3.15-.12-.06,3.19-1.84Z" fill="#bfbfbf"/>
          <path id="Path_206" data-name="Path 206" d="M315.58,111.15l-3.06,1.77-5.45-3.15,3.07-1.77Z" fill="#e5e5e5"/>
          <path id="Path_207" data-name="Path 207" d="M352.78,115.22v.27a1.11,1.11,0,0,1-.56,1l-10.81,6.24a1.1,1.1,0,0,1-1.11,0l-19.56-11.29a1.11,1.11,0,0,1-.56-1v-.27l20.67,11.93Z" transform="translate(-28.33)" fill="#e5e5e5"/>
          <path id="Path_208" data-name="Path 208" d="M340.54,122.27a1.34,1.34,0,0,1-1.14-.09l-19.47-11.24a1.33,1.33,0,0,1-.65-.93L317.15,97.3a1.634,1.634,0,0,1,0-.22,1.33,1.33,0,0,1,.39-.94l20.24,11.69a1,1,0,0,1,.48.68Z" transform="translate(-28.33)" fill="#f4f4f4"/>
          <path id="Path_209" data-name="Path 209" d="M340.85,122.1l-.13.08-.18.09-2.3-13.76a1,1,0,0,0-.48-.68L317.52,96.14a1.05,1.05,0,0,1,.27-.2l20.28,11.7a1,1,0,0,1,.48.69Z" transform="translate(-28.33)" fill="#e5e5e5"/>
          <path id="Path_210" data-name="Path 210" d="M355.55,67.7s-.25,4.84-.14,5.27,2.22,1.84,2.84,2.35-3.35,4.41-5.27,5.3-8-1.45-8.14-4.44,1.05-5.51,2-5.65,8.73-2.83,8.73-2.83" transform="translate(-28.33)" fill="#ffcea9"/>
          <path id="Path_211" data-name="Path 211" d="M356.09,73.8s-3.51,5.23-8.4,5.72c-1.55-1.52-1.69-6.94.45-8.67,0,0-2-1.58-3.31-1.27a6.88,6.88,0,0,0-3,3.85,31.53,31.53,0,0,0-1.73,11.2c.08,5.13,0,18.11,0,18.11a11.07,11.07,0,0,0,5.17,7.43,16,16,0,0,0,11.62,1.6c2.48-.58,3.4-2,4.25-3.77-.22-3.59-1.64-11-1-15.52s1.55-7.9,1.8-11.56-.48-3.58-2.31-4.89a29,29,0,0,0-3.47-2.23" transform="translate(-28.33)" fill="#f4f4f4"/>
          <path id="Path_212" data-name="Path 212" d="M350.46,115.49a25.616,25.616,0,0,1,2.75-1.58,5.79,5.79,0,0,0,2.36-1.42c.86-.85,2.27-4,3.27-7.14A32,32,0,0,0,360,94.55c-.43-4.37-2-10.47-2.4-13s.41-3.51,1.58-4.44c1.37-1.08,3.26-.6,4.27,2.91A68.1,68.1,0,0,1,365.74,95,34,34,0,0,1,364,106a39.29,39.29,0,0,1-4.2,8.65c-.48.81-.63,1.53-1.37,3.19a11.169,11.169,0,0,1-3.21,4.27c-1.23.88-1.81,1-2.1.84s-.29-.61.23-1.08a9.22,9.22,0,0,0,2.19-2.45s-1.08,1.08-1.78,1.66a8.87,8.87,0,0,1-2.05,1.31c-.72.32-1.72-.29-1.21-.77s1-.73,2.06-1.61a9,9,0,0,0,1.45-1.59,16.508,16.508,0,0,1-2.28,1.48,3.79,3.79,0,0,1-2.08.56c-.38,0-.84-.54-.13-1.06a13.87,13.87,0,0,0,2.73-1.86c.78-.78,1.23-1.44,1-1.45s-.65.47-1.57.76-1.91,0-2-.47-.09-.42.77-.84" transform="translate(-28.33)" fill="#ffcea9"/>
          <path id="Path_213" data-name="Path 213" d="M344.61,60.49h0c.57-3.76,3.28-6.6,7.15-6.39a7.47,7.47,0,0,1,7,7.88,7.39,7.39,0,0,1-3.25,5.72,7.371,7.371,0,0,1-.6,1.64c-1.37,1.6-5.51,2.59-6.7,2.42a3.54,3.54,0,0,1-3.08-2.52c-1.29-2.95-.88-6.9-.56-8.75" transform="translate(-28.33)" fill="#ffcea9"/>
          <path id="Path_214" data-name="Path 214" d="M355.55,67.7h0l-.35-3.28s2.67-6.93-3.65-5.6c-4.17.88-5.22,1.26-6.49-1.54s3.21-5.32,8.53-4.62a7.35,7.35,0,0,1,6.58,7.46c-.14,2.06-.69,6.23-4.62,7.58" transform="translate(-28.33)" fill="#8199b1"/>
          <path id="Path_215" data-name="Path 215" d="M366.38,86.5s-3.45,3.44-7.54,2.45c-.58-.4-2-8.42-2-8.42s0-4.45,3.41-4.33,6.11,10.3,6.11,10.3" transform="translate(-28.33)" fill="#ededed"/>
          <path id="Path_216" data-name="Path 216" d="M340.32,79.85a3.74,3.74,0,0,1-2.55-1.15c.13-1.79,2.43-8.61,7.06-9.12a8.54,8.54,0,0,0-2.89,3.49,45,45,0,0,0-1.62,6.78" transform="translate(-28.33)" fill="#ededed"/>
          <g id="Group_47" data-name="Group 47" opacity="0.4">
            <g id="Group_46" data-name="Group 46" clip-path="url(#clip-path-4)">
              <path id="Path_217" data-name="Path 217" d="M322,495.67c2.47,5.39,13.1,5.8,23.75.92S363,483.38,360.54,478s-13.1-5.8-23.75-.92-17.28,13.21-14.8,18.6" transform="translate(-28.33)" fill="#e5e5d6"/>
            </g>
          </g>
          <path id="Path_218" data-name="Path 218" d="M358.21,399.15s-.66,9.93-2,11.36-5.71,2.41-5.71,2.41l-3.4,5.58s3.1-17.75,3.78-18.18,7.29-1.17,7.29-1.17" transform="translate(-28.33)" fill="#ffcea9"/>
          <path id="Path_219" data-name="Path 219" d="M351.68,388.12a3.73,3.73,0,0,1,4.73,1.43c1.25,2.07,2.54,9.17,2.66,10.38,0,0-1.75,2.42-4.38,2Z" transform="translate(-28.33)" fill="#ededed"/>
          <path id="Path_220" data-name="Path 220" d="M341.63,487.24a7.24,7.24,0,0,1-5.5-.66c-1.32,0-8.5-3-9.48-.45-.86,2.26,2.25,4.35,3.92,4.76,3.62.88,6.31,2.68,7.77,3,1.08.23,2.49.38,3.35-.47,1-1,.95-4.82-.06-6.17" transform="translate(-28.33)" fill="#ffd15c"/>
          <path id="Path_221" data-name="Path 221" d="M338.34,493.25c-1.46-.3-4.15-2.11-7.77-3-1.4-.34-3.8-1.86-4-3.68-.32,2.08,2.49,3.93,4,4.3,3.62.88,6.31,2.69,7.77,3,1.08.23,2.49.38,3.35-.47a2.18,2.18,0,0,0,.48-.87,4.33,4.33,0,0,1-3.83.71" transform="translate(-28.33)" fill="#9c73ff"/>
          <path id="Path_222" data-name="Path 222" d="M352.81,483.76a7.26,7.26,0,0,1-5.49-.67c-1.33,0-8.51-3-9.49-.45-.85,2.26,2.26,4.35,3.92,4.76,3.63.88,6.31,2.69,7.77,3,1.09.23,2.49.38,3.36-.47,1-1,.95-4.81-.07-6.16" transform="translate(-28.33)" fill="#ffd15c"/>
          <path id="Path_223" data-name="Path 223" d="M349.52,489.77c-1.46-.31-4.14-2.12-7.77-3-1.39-.34-3.79-1.86-4-3.68-.33,2.09,2.48,3.93,4,4.31,3.63.88,6.31,2.69,7.77,3,1.09.23,2.49.38,3.36-.47a2.05,2.05,0,0,0,.47-.87,4.34,4.34,0,0,1-3.83.72" transform="translate(-28.33)" fill="#9c73ff"/>
          <path id="Path_224" data-name="Path 224" d="M353.61,463.56a44.271,44.271,0,0,0-1.66-7.87s.49-6.79.74-13.23c.28-7.3,2.81-13.73.81-19.56l-22.24,5s1.07,29.18,1.37,32.71a66.113,66.113,0,0,0,1,8.18c1,5.65,2.15,18.3,2.15,18.3,2.39,1.39,5.88.25,5.88.25s0-15.84-.14-19.91c-.19-5-.34-4.6-.34-4.6l.75-12.39.48-6.16s.63,4.52,1,8.56c.36,3.52,1.21,6.71,2.16,13.27.82,5.69,1.67,17.28,1.67,17.28,2.39,1.39,5.59.43,5.59.43s1.38-15.28.74-20.21" transform="translate(-28.33)" fill="#ff7b7b"/>
          <path id="Path_225" data-name="Path 225" d="M350.49,388.25c-1.72.08-3,.52-3.21,0a21.938,21.938,0,0,1-.39-2.69c.19-.49.36-1,.36-1,2.16-1.33,2.84-3.66,3.12-6.37.49-4.64-2-8.7-6.65-9.18-4.36-.45-7.57,2.61-8.43,6.82-.46,2.07-1.37,6-.13,9.41.69,1.91,1.58,3.43,2.48,3.73a23.9,23.9,0,0,0,2.58-.23h0s.23,1.29.39,2.12.1,1.26-1.55,2.27,2.49,3.1,5.19,2.9,5.74-1.84,6.58-3.59c.93-1.94.85-4.24-.33-4.18" transform="translate(-28.33)" fill="#ffcea9"/>
          <path id="Path_226" data-name="Path 226" d="M348,388.5c.48,1.19-.73,2.64-3.95,3.65s-3.52-.29-3.52-.29a62.693,62.693,0,0,0-6.26,3.23c-1.94,1.35-2.8,5.27-3.06,11.87-.3,7.65-.32,19-.07,21,0,0,3.62,3.61,8.24,3.23s12.42-4.48,14.31-7.64c-.06-6.71-.84-7.8.25-11.66,2.48-8.84,3.79-12.46,2.58-18.34-1-4.84-2.39-5.44-4.3-5.4a40.381,40.381,0,0,0-4.22.4" transform="translate(-28.33)" fill="#f4f4f4"/>
          <path id="Path_227" data-name="Path 227" d="M335.21,433.8l2.35-26.63-5-2.63-1.94,1.62.6,23.92h0v.66h0v.84s-.11,2,3.69,4.42c0,0,.06-.63.11-1.22h0l.09-1Z" transform="translate(-28.33)" fill="#ffcea9"/>
          <path id="Path_228" data-name="Path 228" d="M335.8,393.44c-2.56-.05-4.2,1.31-4.82,5.26s-1,7.18-1,7.18a6.88,6.88,0,0,0,4.57,2.27c3.1.34,4-1.23,4-1.23s.32-4.11.5-6.89-.08-6.53-3.25-6.59" transform="translate(-28.33)" fill="#ededed"/>
          <path id="Path_229" data-name="Path 229" d="M340.12,367.87c6.26-.89,10.28,3.13,10.75,7.49.44,4.17-2.13,8.5-4,10.22a7.5,7.5,0,0,1-5.41-.65,29.942,29.942,0,0,1-.12-3.42s3.05-6.42-5.92-6.31c0,0-4-6.09,4.68-7.33" transform="translate(-28.33)" fill="#8199b1"/>
          <path id="Path_230" data-name="Path 230" d="M309.78,276.6c.23,2.07,2.7,11,2.17,14s-8.95,8.16-8.95,8.16l-1.16-5.23L306.5,289l-1.26-8.66Z" transform="translate(-28.33)" fill="#ffcea9"/>
          <path id="Path_231" data-name="Path 231" d="M303.27,267.82a3.67,3.67,0,0,1,4.68,1.42c1.24,2.05,2.53,9.09,2.64,10.29,0,0-1.73,2.4-4.34,2Z" transform="translate(-28.33)" fill="#ededed"/>
          <path id="Path_232" data-name="Path 232" d="M293.65,367.17a7.21,7.21,0,0,1-5.45-.66c-1.31,0-8.43-3-9.4-.45-.85,2.24,2.24,4.32,3.88,4.72,3.6.87,6.26,2.66,7.71,3,1.08.23,2.47.38,3.33-.47,1-1,.94-4.77-.07-6.11" transform="translate(-28.33)" fill="#ffd15c"/>
          <path id="Path_233" data-name="Path 233" d="M290.39,373.13c-1.45-.31-4.11-2.1-7.71-3-1.38-.34-3.76-1.85-4-3.65-.32,2.07,2.47,3.9,4,4.27,3.6.87,6.26,2.66,7.71,3,1.08.23,2.47.38,3.33-.47a2.191,2.191,0,0,0,.47-.86,4.33,4.33,0,0,1-3.8.71" transform="translate(-28.33)" fill="#9c73ff"/>
          <path id="Path_234" data-name="Path 234" d="M305.21,362a7.2,7.2,0,0,1-5.45-.66c-1.32,0-8.44-3-9.41-.45-.85,2.25,2.24,4.32,3.89,4.72,3.6.87,6.26,2.67,7.7,3,1.08.23,2.47.38,3.33-.47,1-1,.94-4.77-.06-6.11" transform="translate(-28.33)" fill="#ffd15c"/>
          <path id="Path_235" data-name="Path 235" d="M301.94,367.94c-1.44-.3-4.1-2.1-7.7-3-1.38-.33-3.76-1.85-4-3.65-.32,2.07,2.46,3.9,4,4.27,3.6.87,6.26,2.67,7.7,3,1.08.23,2.47.38,3.33-.47a2,2,0,0,0,.47-.86,4.3,4.3,0,0,1-3.8.71" transform="translate(-28.33)" fill="#9c73ff"/>
          <path id="Path_236" data-name="Path 236" d="M305.35,342.63a43.269,43.269,0,0,0-1.65-7.81s.49-6.73.74-13.11c.28-7.25,2.79-13.62.81-19.4l-22.35,5s1.35,28.88,1.65,32.38a64.323,64.323,0,0,0,1,8.1c1,5.61,2.68,18.95,2.68,18.95a8.35,8.35,0,0,0,5.46.61s-.17-16.86-.32-20.9c-.19-4.94-.34-4.56-.34-4.56l.74-12.29.49-6.11s.62,4.49,1,8.49c.35,3.5,1.19,6.66,2.13,13.16.82,5.64,2.15,17,2.15,17,2.36,1.37,5.57.23,5.57.23s.86-14.8.22-19.69" transform="translate(-28.33)" fill="#ff7b7b"/>
          <path id="Path_237" data-name="Path 237" d="M302.08,267.94c-1.7.09-3,.53-3.18,0a21.316,21.316,0,0,1-.39-2.66c.2-.49.37-1,.37-1C301,263,301.69,260.65,302,258c.48-4.6-2-8.62-6.6-9.1-4.33-.45-7.51,2.59-8.35,6.76-.46,2.06-1.37,5.95-.14,9.34.68,1.89,1.57,3.39,2.46,3.69a23.375,23.375,0,0,0,2.56-.23h0s.23,1.28.39,2.1.1,1.25-1.54,2.26,2.47,3.07,5.15,2.87,5.69-1.82,6.52-3.55c.92-1.94.84-4.21-.33-4.16" transform="translate(-28.33)" fill="#ffcea9"/>
          <path id="Path_238" data-name="Path 238" d="M299.62,268.2c.47,1.17-.73,2.61-3.92,3.62s-3.49-.29-3.49-.29a61.377,61.377,0,0,0-6.21,3.2c-1.92,1.34-2.77,5.22-3,11.77-.3,7.59-.33,18.84-.07,20.78,0,0,3.58,3.57,8.17,3.2s12.31-4.44,14.18-7.58c-.05-6.65-.82-7.73.25-11.56,2.47-8.77,3.76-12.36,2.57-18.19-1-4.8-2.38-5.4-4.27-5.35a39.68,39.68,0,0,0-4.18.4" transform="translate(-28.33)" fill="#f4f4f4"/>
          <path id="Path_239" data-name="Path 239" d="M275.75,292.77c3.77,1,4.65-1.42,5.15-3.39,1.2-4.76,1.84-9.06,2.74-11.76,1.05-3.19,2.15-3.69,3.7-4.32,1.82-.72,3.38.81,2.78,4.87A81.8,81.8,0,0,1,286.67,292c-.47,1.49-1.52,4.12-3.1,5.39-1.94,1.57-4.87,1.51-9.29.4-1.89-.47-4-1.59-7.54-3.26-.95-.45-1.7-.74-3.54-1.6a12.52,12.52,0,0,1-4.72-3.69c-1-1.39-1.09-2.05-.9-2.37s.69-.31,1.2.28a10.25,10.25,0,0,0,2.71,2.51s-1.19-1.23-1.83-2a10.261,10.261,0,0,1-1.43-2.33c-.34-.81.36-1.92.9-1.34s.78,1.17,1.76,2.34a10.711,10.711,0,0,0,1.74,1.67,19.06,19.06,0,0,1-1.6-2.59,4.23,4.23,0,0,1-.59-2.34c0-.42.63-.93,1.19-.12a16.059,16.059,0,0,0,2,3.09c.86.89,1.6,1.4,1.62,1.15s-.52-.73-.83-1.77,0-2.14.58-2.26.46-.09.92.88a29.387,29.387,0,0,1,1.71,3.11,6.39,6.39,0,0,0,1.55,2.67c.93,1,3,2.07,6.55,3" transform="translate(-28.33)" fill="#ffcea9"/>
          <path id="Path_240" data-name="Path 240" d="M288.73,272.65c-2.51-.37-4.29.77-5.4,4.58s-1.89,6.93-1.89,6.93a6.88,6.88,0,0,0,4.22,2.8c3,.73,4.09-.71,4.09-.71s.83-4,1.35-6.71.75-6.43-2.37-6.89" transform="translate(-28.33)" fill="#ededed"/>
          <path id="Path_241" data-name="Path 241" d="M287.16,255s-4-6,4.64-7.27c6.21-.89,10.2,3.1,10.66,7.43.44,4.13-2.11,8.43-3.95,10.13a7.46,7.46,0,0,1-5.37-.65,31,31,0,0,1-.11-3.38s3-6.37-5.87-6.26" transform="translate(-28.33)" fill="#8199b1"/>
          <path id="Path_242" data-name="Path 242" d="M180.24,391.84l-.03,8.98L90.4,453.02l.03-8.98Z" fill="#d3d3dd"/>
          <path id="Path_243" data-name="Path 243" d="M90.43,444.04l-.03,8.98L0,400.83l.03-8.98Z" fill="#e0dee9"/>
          <path id="Path_244" data-name="Path 244" d="M180.24,391.84l-89.81,52.2L.03,391.85l89.81-52.2Z" fill="#eaeaf4"/>
          <path id="Path_245" data-name="Path 245" d="M166.23,255.73l-.38,134.73L90.26,434.38l.38-134.72Z" fill="#d3d3dd"/>
          <path id="Path_246" data-name="Path 246" d="M90.64,299.66l-.38,134.72L14.17,390.46l.38-134.73Z" fill="#e0dee9"/>
          <path id="Path_247" data-name="Path 247" d="M166.23,255.73,90.64,299.66,14.55,255.73,90.14,211.8Z" fill="#eaeaf4"/>
          <path id="Path_248" data-name="Path 248" d="M34.16,314.64l-.04,13.97-12.15-7.02.04-13.96Z" fill="#2a313f"/>
          <path id="Path_249" data-name="Path 249" d="M34.22,295.21l-.04,13.96-12.15-7.01.04-13.96Z" fill="#2a313f"/>
          <path id="Path_250" data-name="Path 250" d="M34.27,275.78l-.04,13.97-12.14-7.02.03-13.97Z" fill="#2a313f"/>
          <path id="Path_251" data-name="Path 251" d="M83.26,362.45l-.04,13.97-43.6-25.17.04-13.97Z" fill="#2a313f"/>
          <path id="Path_252" data-name="Path 252" d="M83.31,343.02l-.04,13.97L39.68,331.82l.04-13.97Z" fill="#2a313f"/>
          <path id="Path_253" data-name="Path 253" d="M83.37,323.59l-.04,13.96-43.6-25.17.04-13.96Z" fill="#2a313f"/>
          <path id="Path_254" data-name="Path 254" d="M83.42,304.15l-.04,13.97L39.79,292.95l.04-13.96Z" fill="#2a313f"/>
          <path id="Path_255" data-name="Path 255" d="M34.05,353.5l-.04,13.97-12.15-7.02.04-13.96Z" fill="#2a313f"/>
          <path id="Path_256" data-name="Path 256" d="M34.11,334.07l-.04,13.97-12.15-7.01.04-13.97Z" fill="#2a313f"/>
          <path id="Path_257" data-name="Path 257" d="M83.2,381.88l-.04,13.97L39.57,370.68l.04-13.97Z" fill="#2a313f"/>
          <path id="Path_258" data-name="Path 258" d="M109.83,316.72l.04,13.97-12.16,7.02-.04-13.97Z" fill="#2a313f"/>
          <path id="Path_259" data-name="Path 259" d="M109.77,297.29l.04,13.97-12.15,7.02-.04-13.97Z" fill="#2a313f"/>
          <path id="Path_260" data-name="Path 260" d="M159.14,346.65l.04,13.96-43.6,25.17-.04-13.96Z" fill="#2a313f"/>
          <path id="Path_261" data-name="Path 261" d="M159.08,327.21l.04,13.97-43.59,25.17-.04-13.97Z" fill="#2a313f"/>
          <path id="Path_262" data-name="Path 262" d="M159.03,307.79l.04,13.96-43.6,25.17-.04-13.97Z" fill="#2a313f"/>
          <path id="Path_263" data-name="Path 263" d="M158.97,288.35l.04,13.97-43.59,25.17-.04-13.97Z" fill="#2a313f"/>
          <path id="Path_264" data-name="Path 264" d="M158.92,268.92l.04,13.96-43.6,25.18-.04-13.97Z" fill="#2a313f"/>
          <path id="Path_265" data-name="Path 265" d="M109.99,375.02l.04,13.96L97.88,396l-.04-13.96Z" fill="#2a313f"/>
          <path id="Path_266" data-name="Path 266" d="M109.94,355.58l.04,13.97-12.16,7.02-.04-13.97Z" fill="#2a313f"/>
          <path id="Path_267" data-name="Path 267" d="M109.88,336.16l.04,13.96-12.15,7.02-.04-13.96Z" fill="#2a313f"/>
          <path id="Path_268" data-name="Path 268" d="M165.88,379.59l-.03,10.86L90.26,434.38l.02-11.12Z" fill="#323941"/>
          <path id="Path_269" data-name="Path 269" d="M90.28,423.26l-.03,11.12L14.17,390.46l.03-11.13Z" fill="#323941"/>
          <path id="Path_270" data-name="Path 270" d="M118.12,257.51a6.174,6.174,0,0,0,.86,0l4.32,2.5a16.29,16.29,0,0,1-9.48,0Z" transform="translate(-28.33)" fill="#2a313f"/>
          <path id="Path_271" data-name="Path 271" d="M99.33,241.68c11-5.33,27.18-5.33,38.26,0l-3.9,2.26c-8.91-4.1-21.58-4.1-30.43,0Z" transform="translate(-28.33)" fill="#2a313f"/>
          <path id="Path_272" data-name="Path 272" d="M106,245.53a33.19,33.19,0,0,1,24.93,0L127,247.82a24.52,24.52,0,0,0-17,0Z" transform="translate(-28.33)" fill="#2a313f"/>
          <path id="Path_273" data-name="Path 273" d="M113.76,250a16.32,16.32,0,0,1,9.49,0L119,252.5h-.88Z" transform="translate(-28.33)" fill="#2a313f"/>
          <path id="Path_274" data-name="Path 274" d="M122.86,255.26a2.09,2.09,0,0,0,0-.5l4.3-2.5a3.72,3.72,0,0,1,0,5.49Z" transform="translate(-28.33)" fill="#2a313f"/>
          <path id="Path_275" data-name="Path 275" d="M131,260c3.5-3,3.49-6.92,0-9.88l3.93-2.28c5.63,4.24,5.66,10.2.08,14.44Z" transform="translate(-28.33)" fill="#2a313f"/>
          <path id="Path_276" data-name="Path 276" d="M106.08,250.07c-3.5,3-3.47,6.92.07,9.88l-3.94,2.28c-5.63-4.24-5.66-10.2-.08-14.44Z" transform="translate(-28.33)" fill="#2a313f"/>
          <path id="Path_277" data-name="Path 277" d="M137.7,263.83c7-5.14,7-12.49-.1-17.63l3.9-2.27c9.22,6.4,9.28,15.76.12,22.16Z" transform="translate(-28.33)" fill="#2a313f"/>
          <path id="Path_278" data-name="Path 278" d="M103.38,266.08c8.9,4.09,21.59,4.09,30.43,0l3.92,2.27c-11,5.32-27.17,5.32-38.24,0Z" transform="translate(-28.33)" fill="#2a313f"/>
          <path id="Path_279" data-name="Path 279" d="M99.37,246.2c-7,5.13-7,12.48.1,17.63l-3.89,2.26c-9.24-6.4-9.29-15.76-.13-22.16Z" transform="translate(-28.33)" fill="#2a313f"/>
          <path id="Path_280" data-name="Path 280" d="M110.05,262.2a24.52,24.52,0,0,0,17,0l4,2.29a33.12,33.12,0,0,1-24.94,0Z" transform="translate(-28.33)" fill="#2a313f"/>
          <path id="Path_281" data-name="Path 281" d="M114.2,254.76a1.68,1.68,0,0,0,0,.5l-4.3,2.5a3.71,3.71,0,0,1,0-5.5Z" transform="translate(-28.33)" fill="#2a313f"/>
          <line id="Line_8" data-name="Line 8" y1="23.86" x2="41.54" transform="translate(180.21 376.97)" fill="#ffcea9"/>
        </g>
      </g>
    </g>
    <path id="DONE_" data-name="DONE!" d="M6.063,58.554l-.765.433q-.67.38-1.5.919-.52.342-.723.457-.715.405-1.183.3t-.5-.676q-.021-.4.166-.739t.629-.728q.422-.357.559-.7t.184-1.141q.042-.914-.016-3.466t-.184-5.064q-.05-.985-.207-1.235t-.687-.163q-.763.108-.8-.634-.03-.578.469-1.186t1.419-1.116q.3-.167.714-.382.909-.465,1.319-.69Q6.5,41.9,8.428,40.728q.406-.248,1.016-.584,2.443-1.346,3.881-1.514,2.131-.243,3.267,1.322,1,1.365,1.1,3.958.048,1.3-.248,2.8T16.6,49.492Q15.464,52.1,13.363,54.08q-1.238,1.169-2.667,1.978l-1.276.676-1.1.588-.621.332-.583.316-.545.3Zm1.648-13.8.412,8.981q.033.725.333.868t.966-.233q1.541-.87,2.255-2.579t.607-4.27q-.119-2.841-.906-4.013-.872-1.3-2.781-.242-.513.284-.712.622T7.711,44.757ZM26.328,30.781q2.654-1.462,4.67-.84,1.358.436,2.226,1.839.844,1.4.884,3.233.059,2.7-1.47,5.7-1.292,2.548-3.432,4.553-1.319,1.231-2.664,1.993-1.768,1-3.415,1.1-2,.122-3.187-1.259-1.16-1.337-1.245-3.7-.1-2.755,1.238-5.653,1.189-2.582,3.277-4.638Q24.606,31.73,26.328,30.781Zm-.885,3.885q-.869.482-1.35,1.634-.374.868-.346,1.76.041,1.306.569,2.752T25.6,43.164q.335.381.81.45t.956-.2q.776-.437,1.233-1.355t.429-1.981q-.037-1.386-.479-2.771t-1.112-2.18q-.411-.489-.938-.609T25.443,34.666ZM40.4,23.918l5.049,2.26q.7.311,1.009.14.515-.287.5-1.557-.015-1.445-.169-1.891t-.634-.447q-.39,0-.553-.164t-.167-.552q-.011-.97,1.132-1.879.466-.373,1.629-1.014,1.5-.825,2.072-.933.91-.178.916.72,0,.747-.731,1.535-.295.313-.4.488t-.185.448q-.26.9-.253,3.016l.03,3.711q.007.85.028,2.316.026,1.98-.182,2.979-.255,1.239-.949,1.632-.3.172-.525.151t-.737-.261l-5.944-2.711q-.629-.292-1.039-.063-.611.342-.578,2.269.027,1.58.191,2.072t.647.493q.672,0,.682.6.024,1.568-2.95,3.254-1.349.764-2.1.786t-.771-.714q-.008-.385.129-.657t.622-.879q.465-.584.55-1.447.142-1.564.088-4.328-.058-2.962-.388-4.153-.121-.435-.3-.582t-.577-.148q-.462,0-.645-.147t-.19-.493q-.024-1.114,1.648-2.33.567-.406,1.985-1.188.809-.446,1.18-.5T40.4,23.918Zm13.483-7.994L58.9,13.158q1.513-.834,2.206-1.29t1.349-1.047q.2-.18.319-.244.5-.276.884.153.63.691.622,2.163,0,.74-.269,1.314t-.726.829q-.317.176-.494.121t-.473-.425q-.421-.529-1.072-.426t-2.142.929q-1.116.618-1.358,1.221-.126.322-.15.758t-.022,2.169q0,.683.194.739t1.016-.4q.406-.226.589-.527t.232-.839q.068-.7.141-.982t.266-.575q.2-.318.473-.468.4-.22.674.069.2.218.339.975t.135,1.663q0,1.786-.477,3.188-.26.765-.788,1.061-.326.183-.451.057t-.191-.709q-.143-1.2-1.271-.564-.434.243-.594.655T57.7,24q0,.53.064,1.335t.131,1.035q.077.294.476.2t1.33-.621q1.436-.81,2.163-1.652t1.189-2.232q.27-.8.485-1.148t.559-.538q.4-.225.66.039t.256.881q0,.673-.3,1.846t-.73,2.2q-.22.5-.363.712t-.361.333q-.181.1-.522.229-.609.211-1.628.756l-8.157,4.621q-.495.28-.768.182t-.276-.559q0-.326.114-.538t.533-.673q.291-.311.431-.6t.215-.754q.313-1.884.3-4.782-.02-4.4-.5-5.3-.1-.175-.217-.2t-.492.054q-.562.115-.566-.564,0-.368.183-.759t.49-.652Q52.781,16.531,53.881,15.924Zm14.312,2.917q.821-.462,1.4-.062t.566,1.348q-.01.992-.618,2.05T68.1,23.709q-.819.464-1.4.139-.628-.355-.621-1.405.006-.973.57-1.96Q67.276,19.357,68.193,18.842ZM68.235,8.17q.848-.468,1.431-.063.778.522.76,2.271-.012,1.156-.361,2.672t-.916,2.861q-.644,1.524-1.031,1.742t-1.059-.9q-.505-.819-.8-1.919t-.285-2.16q.008-1.3.5-2.446Q67.09,8.8,68.235,8.17Z" transform="translate(177.803 49.904)" fill="#2a313f"/>
  </g>
</svg>
