<svg xmlns="http://www.w3.org/2000/svg" width="368.26" height="292.068" viewBox="0 0 368.26 292.068">
  <g id="folder" transform="translate(0 -52.966)">
    <g id="Group_1" data-name="Group 1" transform="translate(19.048 52.966)">
      <path id="SVGCleanerId_0_1_" d="M139.271,103.76H47.03a12.7,12.7,0,0,1-11.358-7.02L26.483,78.363l9.189-18.377a12.7,12.7,0,0,1,11.358-7.02h92.242a12.7,12.7,0,0,1,11.358,7.02l9.189,18.377L150.629,96.74A12.7,12.7,0,0,1,139.271,103.76Z" transform="translate(-26.483 -52.966)" fill="#3e4954"/>
    </g>
    <path id="Path_1" data-name="Path 1" d="M354.169,70.621H24a6.35,6.35,0,0,0-6.35,6.35v31.747H360.518V76.97A6.35,6.35,0,0,0,354.169,70.621Z" transform="translate(-4.956 -4.956)" fill="#8199b1"/>
    <path id="Path_7" data-name="Path 7" d="M0,0H342.863V12.7H0Z" transform="translate(12.699 91.062)" fill="#5e7285"/>
    <path id="Path_2" data-name="Path 2" d="M355.562,88.276H156.308a6.349,6.349,0,0,0-5.679,3.509L143.2,106.653a12.7,12.7,0,0,1-11.358,7.02H39.6a12.7,12.7,0,0,1-11.358-7.02L20.8,91.785a6.349,6.349,0,0,0-5.679-3.509H12.7A12.7,12.7,0,0,0,0,100.975V342.248a12.7,12.7,0,0,0,12.7,12.7H355.562a12.7,12.7,0,0,0,12.7-12.7V100.975A12.7,12.7,0,0,0,355.562,88.276Z" transform="translate(0 -9.913)" fill="#3e4954"/>
    <path id="Path_3" data-name="Path 3" d="M354.169,436.422H24a6.35,6.35,0,0,1-6.35-6.35h0a6.35,6.35,0,0,1,6.35-6.35H354.169a6.35,6.35,0,0,1,6.35,6.35h0A6.35,6.35,0,0,1,354.169,436.422Z" transform="translate(-4.956 -104.087)" fill="#323941"/>
  </g>
</svg>
