<svg xmlns="http://www.w3.org/2000/svg" width="388.193" height="615.975" viewBox="0 0 388.193 615.975">
  <g id="lock2" transform="translate(-94.667)">
    <rect id="Rectangle_5" data-name="Rectangle 5" width="363.658" height="301.042" transform="translate(106.941 302.663)" fill="#6484a4"/>
    <path id="Path_23" data-name="Path 23" d="M426.867,299.78H373.585V156.389a92.908,92.908,0,0,0-185.815,0v83.267H134.488V156.389c0-80.61,65.581-146.189,146.189-146.189S426.867,75.78,426.867,156.389Z" transform="translate(8.087 2.071)" fill="#6484a4"/>
    <path id="Path_24" data-name="Path 24" d="M470.59,290.389H447.223V158.459C447.223,71.085,376.139,0,288.764,0S130.3,71.085,130.3,158.461v83.267A12.27,12.27,0,0,0,142.573,254h53.282a12.27,12.27,0,0,0,12.27-12.27V158.461a80.637,80.637,0,0,1,161.275,0V290.39H106.937a12.27,12.27,0,0,0-12.27,12.27V603.7a12.27,12.27,0,0,0,12.27,12.27H470.59a12.27,12.27,0,0,0,12.27-12.27V302.66A12.269,12.269,0,0,0,470.59,290.389ZM288.764,53.282A105.3,105.3,0,0,0,183.585,158.461v71H154.844v-71c0-73.844,60.076-133.919,133.919-133.919S422.682,84.617,422.682,158.461V289.583H393.94V158.461A105.3,105.3,0,0,0,288.764,53.282ZM458.319,591.434H119.207V314.93H458.318v276.5Z" fill="#3e4954"/>
    <path id="Path_25" data-name="Path 25" d="M293.288,354.2a31.9,31.9,0,1,0-49.639,26.519l-9.259,53.239H288.38l-8.565-53.725A31.855,31.855,0,0,0,293.288,354.2Z" transform="translate(27.378 65.45)" fill="#fff"/>
    <path id="Path_26" data-name="Path 26" d="M290.452,448.3H236.462a12.27,12.27,0,0,1-12.088-14.372l8.04-46.227a44.182,44.182,0,1,1,62.665-.6l7.493,47a12.266,12.266,0,0,1-12.12,14.2Zm-39.4-24.542h25.02l-6.3-39.523a12.273,12.273,0,0,1,5.018-11.941,19.626,19.626,0,1,0-22.238.3,12.271,12.271,0,0,1,5.259,12.3Z" transform="translate(25.307 63.379)" fill="#3e4954"/>
    <path id="Path_27" data-name="Path 27" d="M141.8,496.378a12.27,12.27,0,0,1-12.27-12.27V395.761a12.27,12.27,0,0,1,24.54,0v88.347A12.27,12.27,0,0,1,141.8,496.378Z" transform="translate(7.08 77.878)" fill="#3e4954"/>
    <path id="Path_28" data-name="Path 28" d="M141.8,373.814a12.27,12.27,0,0,1-12.27-12.27v-20.86a12.27,12.27,0,0,1,24.54,0v20.86A12.27,12.27,0,0,1,141.8,373.814Z" transform="translate(7.08 66.693)" fill="#3e4954"/>
  </g>
</svg>
