<?xml version="1.0" encoding="iso-8859-1"?>
<!-- Generator: Adobe Illustrator 19.0.0, SVG Export Plug-In . SVG Version: 6.00 Build 0)  -->
<svg version="1.1" id="Layer_1" xmlns="http://www.w3.org/2000/svg" xmlns:xlink="http://www.w3.org/1999/xlink" x="0px" y="0px"
	 viewBox="0 0 297 297" style="enable-background:new 0 0 297 297;" xml:space="preserve">
<g>
	<g>
		<g>
			<g>
				<circle style="fill:#3C5768;" cx="148.5" cy="148.5" r="148.5"/>
			</g>
		</g>
	</g>
	<path style="fill:#2C444F;" d="M191.731,108.242l-77.535,129.71l57.233,57.285c52.637-8.159,96.137-43.959,115.195-92.102
		L191.731,108.242z"/>
	<g>
		<path style="fill:#D0D5D9;" d="M148.5,111.823c-2.485,0-4.5-2.015-4.5-4.5V49.609c0-2.485,2.015-4.5,4.5-4.5s4.5,2.015,4.5,4.5
			v57.714C153,109.809,150.985,111.823,148.5,111.823z"/>
	</g>
	<g>
		<path style="fill:#FFFFFF;" d="M148.5,251.391L148.5,251.391c27.89,0,50.5-22.61,50.5-50.5v-74.365
			c0-14.71-11.925-26.635-26.635-26.635h-47.731c-14.71,0-26.635,11.925-26.635,26.635v74.365
			C98,228.781,120.61,251.391,148.5,251.391z"/>
	</g>
	<g>
		<path style="fill:#32373B;" d="M145.549,146.237h5.903c2.354,0,4.263-1.909,4.263-4.263v-20.331c0-2.354-1.909-4.263-4.263-4.263
			h-5.903c-2.354,0-4.263,1.909-4.263,4.263v20.331C141.286,144.329,143.194,146.237,145.549,146.237z"/>
	</g>
</g>
<g>
</g>
<g>
</g>
<g>
</g>
<g>
</g>
<g>
</g>
<g>
</g>
<g>
</g>
<g>
</g>
<g>
</g>
<g>
</g>
<g>
</g>
<g>
</g>
<g>
</g>
<g>
</g>
<g>
</g>
</svg>
