<?xml version="1.0" encoding="iso-8859-1"?>
<!-- Generator: Adobe Illustrator 19.0.0, SVG Export Plug-In . SVG Version: 6.00 Build 0)  -->
<svg version="1.1" id="Layer_1" xmlns="http://www.w3.org/2000/svg" xmlns:xlink="http://www.w3.org/1999/xlink" x="0px" y="0px"
	 viewBox="0 0 297 297" style="enable-background:new 0 0 297 297;" xml:space="preserve">
<g>
	<g>
		<g>
			<g>
				<circle style="fill:#D0D5D9;" cx="148.5" cy="148.5" r="148.5"/>
			</g>
		</g>
	</g>
	<path style="fill:#AAB1B5;" d="M202.19,73.741L81.718,241.947l54.548,54.548c4.035,0.329,8.114,0.505,12.234,0.505
		c75.624,0,138.045-56.529,147.313-129.637L202.19,73.741z"/>
	<g>
		<path style="fill:#32373B;" d="M180.012,51.563H90.135C83.433,51.563,78,56.996,78,63.698v23.115h13.085v35.25H78v111.24
			c0,6.702,5.433,12.135,12.135,12.135h116.729c6.702,0,12.135-5.433,12.135-12.135V90.551L180.012,51.563z"/>
	</g>
	<g>
		<path style="fill:#E3E5E4;" d="M166.125,86.272c-2.209,0-4-1.791-4-4V64.647c0-2.209,1.791-4,4-4s4,1.791,4,4v17.625
			C170.125,84.481,168.334,86.272,166.125,86.272z"/>
	</g>
	<g>
		<path style="fill:#E3E5E4;" d="M148.5,86.272c-2.209,0-4-1.791-4-4V64.647c0-2.209,1.791-4,4-4s4,1.791,4,4v17.625
			C152.5,84.481,150.709,86.272,148.5,86.272z"/>
	</g>
	<g>
		<path style="fill:#E3E5E4;" d="M130.875,86.272c-2.209,0-4-1.791-4-4V64.647c0-2.209,1.791-4,4-4s4,1.791,4,4v17.625
			C134.875,84.481,133.084,86.272,130.875,86.272z"/>
	</g>
	<g>
		<path style="fill:#E3E5E4;" d="M113.25,86.272c-2.209,0-4-1.791-4-4V64.647c0-2.209,1.791-4,4-4s4,1.791,4,4v17.625
			C117.25,84.481,115.459,86.272,113.25,86.272z"/>
	</g>
	<g>
		<rect x="95.625" y="174.938" style="fill:#5D7486;" width="105.75" height="52.875"/>
	</g>
</g>
<g>
</g>
<g>
</g>
<g>
</g>
<g>
</g>
<g>
</g>
<g>
</g>
<g>
</g>
<g>
</g>
<g>
</g>
<g>
</g>
<g>
</g>
<g>
</g>
<g>
</g>
<g>
</g>
<g>
</g>
</svg>
