<svg xmlns="http://www.w3.org/2000/svg" width="93.33" height="99.8" viewBox="0 0 93.33 99.8">
  <g id="XMLID_3_" transform="translate(-16.3)">
    <g id="XMLID_18_" transform="translate(35.23 8.367)">
      <g id="XMLID_19_" transform="translate(0)">
        <g id="XMLID_20_">
          <path id="XMLID_25_" d="M162.8,80.776a27.575,27.575,0,0,0,1.4-20.867c0-.04-.02-.06-.04-.1a28,28,0,0,0-13.478-15.755.8.8,0,0,0-.559-.28A27.592,27.592,0,0,0,129.489,42.2a.95.95,0,0,0-.459.14,28.008,28.008,0,0,0-15.795,13.518.864.864,0,0,0-.359.739,27.58,27.58,0,0,0-1.358,20.787c0,.04.02.06.04.1a28.1,28.1,0,0,0,13.658,15.855.885.885,0,0,0,.559.28,27.7,27.7,0,0,0,36.861-12.54A.55.55,0,0,0,162.8,80.776ZM162.376,77a12.726,12.726,0,0,0-11.581-9.265,12.888,12.888,0,0,0-3.135-7.568,11.015,11.015,0,0,1,14.836.419,25.5,25.5,0,0,1,1.278,8.027A26.382,26.382,0,0,1,162.376,77Zm-16.454-.739a1.1,1.1,0,0,0-.18.14.717.717,0,0,0-.14.2,11.092,11.092,0,0,1-15.615-15.755c.04-.02.08-.06.12-.08a1.1,1.1,0,0,0,.14-.18,11.087,11.087,0,0,1,18.73,8.047A11.205,11.205,0,0,1,145.923,76.263Zm15.256-18.89a12.971,12.971,0,0,0-14.816,1.518,12.8,12.8,0,0,0-7.528-3.155,11.067,11.067,0,0,1,10.863-10.1A26.128,26.128,0,0,1,161.178,57.374Zm-14.7-13.139a12.859,12.859,0,0,0-9.5,11.5,12.906,12.906,0,0,0-7.508,3.075,11.059,11.059,0,0,1,.5-14.836,25.664,25.664,0,0,1,16.514.26Zm-19.748,1.038a12.96,12.96,0,0,0,1.4,14.876,12.8,12.8,0,0,0-3.155,7.528,11.139,11.139,0,0,1-10.2-10.683A25.965,25.965,0,0,1,126.733,45.273ZM113.395,60.189a12.989,12.989,0,0,0,11.561,9.345,12.835,12.835,0,0,0,3.135,7.568,11.015,11.015,0,0,1-14.836-.419,25.5,25.5,0,0,1-1.278-8.027A25.8,25.8,0,0,1,113.395,60.189Zm1.178,19.728a12.8,12.8,0,0,0,14.8-1.518,12.8,12.8,0,0,0,7.528,3.155,11.041,11.041,0,0,1-10.663,10.2A26.147,26.147,0,0,1,114.573,79.917Zm14.876,13.2a12.9,12.9,0,0,0,9.305-11.561,12.971,12.971,0,0,0,7.608-3.155,11.17,11.17,0,0,1-.479,14.856,25.738,25.738,0,0,1-16.434-.14ZM149.1,91.958a12.767,12.767,0,0,0,1.717-6.39A12.954,12.954,0,0,0,147.66,77.1a12.763,12.763,0,0,0,3.115-7.488,10.889,10.889,0,0,1,10.2,10.663A25.99,25.99,0,0,1,149.1,91.958Z" transform="translate(-110.1 -40.9)" fill="#8199b1"/>
          <path id="XMLID_22_" d="M215.827,138.1a8.327,8.327,0,1,0,8.327,8.327A8.284,8.284,0,0,0,215.827,138.1Zm0,14.8a6.47,6.47,0,1,1,6.47-6.47A6.43,6.43,0,0,1,215.827,152.9Z" transform="translate(-188.051 -118.691)" fill="#8199b1"/>
          <path id="XMLID_1_" d="M229.694,156.7A3.7,3.7,0,0,0,226,160.394a.87.87,0,0,0,.919.919.881.881,0,0,0,.919-.919,1.866,1.866,0,0,1,1.857-1.857.919.919,0,0,0,0-1.837Z" transform="translate(-202.857 -133.577)" fill="#8199b1"/>
        </g>
      </g>
    </g>
    <g id="XMLID_4_" transform="translate(16.3)">
      <path id="XMLID_39_" d="M126.911,87.2q2.666-9.4,6.19-18.79L158.52,0H96.4l24.481,68.39Q124.475,78.424,126.911,87.2Z" transform="translate(-80.406)" fill="none"/>
      <path id="XMLID_38_" d="M69,68.39q-3.534,9.4-6.19,18.79-2.426-8.776-6.03-18.79L32.294,0H16.3L54.978,99.8H70.553L109.63,0H94.415Z" transform="translate(-16.3)" fill="#8199b1"/>
    </g>
  </g>
</svg>
